<svg width="56" height="57" viewBox="0 0 56 57" fill="none" xmlns="http://www.w3.org/2000/svg">
<path d="M0.5 28.5767C0.5 13.3888 12.8122 1.07666 28 1.07666C43.1878 1.07666 55.5 13.3888 55.5 28.5767C55.5 43.7645 43.1878 56.0767 28 56.0767C12.8122 56.0767 0.5 43.7645 0.5 28.5767Z" fill="white" stroke="#9D9D9D" stroke-width="0.25"/>
<path fill-rule="evenodd" clip-rule="evenodd" d="M33.2669 14.5279C33.5182 16.2345 32.8235 17.9064 31.9072 19.0893C30.9268 20.3582 29.2369 21.3395 27.5996 21.2883C27.3007 19.6544 28.066 17.9709 28.9972 16.8392C30.0186 15.5902 31.7692 14.632 33.2669 14.5279ZM38.1854 38.5495C39.0295 37.2559 39.3448 36.6033 40 35.1428C35.2343 33.3305 34.4707 26.5552 39.1871 23.9548C37.7485 22.1507 35.727 21.1049 33.8187 21.1049C32.4437 21.1049 31.5016 21.4637 30.6452 21.7899C29.9315 22.0618 29.2772 22.3109 28.4815 22.3109C27.6216 22.3109 26.8601 22.0379 26.0628 21.752C25.1866 21.4379 24.2672 21.1082 23.1262 21.1082C20.9848 21.1082 18.7054 22.4167 17.2602 24.6536C15.2288 27.8042 15.5753 33.727 18.8696 38.7725C20.0471 40.5783 21.6203 42.6071 23.678 42.6252C24.5318 42.6337 25.1 42.3789 25.7148 42.1031C26.4186 41.7875 27.1834 41.4444 28.5078 41.4374C29.8399 41.4294 30.5927 41.7766 31.2871 42.0969C31.8862 42.3732 32.4417 42.6295 33.2883 42.6203C35.3476 42.6038 37.0079 40.3552 38.1854 38.5495Z" fill="#0B0B0A"/>
</svg>
