<svg width="56" height="57" viewBox="0 0 56 57" fill="none" xmlns="http://www.w3.org/2000/svg">
<path d="M0.5 28.5767C0.5 13.3888 12.8122 1.07666 28 1.07666C43.1878 1.07666 55.5 13.3888 55.5 28.5767C55.5 43.7645 43.1878 56.0767 28 56.0767C12.8122 56.0767 0.5 43.7645 0.5 28.5767Z" fill="white" stroke="#9D9D9D" stroke-width="0.25"/>
<path d="M39.9166 28.5767C39.9166 21.9946 34.582 16.66 27.9999 16.66C21.4178 16.66 16.0833 21.9946 16.0833 28.5767C16.0833 34.5257 20.4403 39.4553 26.1379 40.349V32.0213H23.1122V28.5767H26.1379V25.9513C26.1379 22.9651 27.9161 21.3149 30.6393 21.3149C31.9426 21.3149 33.3066 21.5477 33.3066 21.5477V24.4803H31.803C30.3227 24.4803 29.8619 25.3997 29.8619 26.3423V28.5767H33.1669L32.6386 32.0213H29.8619V40.349C35.5595 39.4553 39.9166 34.5257 39.9166 28.5767Z" fill="#1877F2"/>
<path d="M32.6384 32.0213L33.1667 28.5767H29.8618V26.3423C29.8618 25.3997 30.3226 24.4803 31.8029 24.4803H33.3064V21.5477C33.3064 21.5477 31.9425 21.3149 30.6391 21.3149C27.916 21.3149 26.1378 22.9651 26.1378 25.9513V28.5767H23.1121V32.0213H26.1378V40.349C26.7453 40.4445 27.3667 40.4933 27.9998 40.4933C28.6328 40.4933 29.2543 40.4445 29.8618 40.349V32.0213H32.6384Z" fill="white"/>
</svg>
