<svg width="56" height="57" viewBox="0 0 56 57" fill="none" xmlns="http://www.w3.org/2000/svg">
<path d="M0.5 28.5767C0.5 13.3888 12.8122 1.07666 28 1.07666C43.1878 1.07666 55.5 13.3888 55.5 28.5767C55.5 43.7645 43.1878 56.0767 28 56.0767C12.8122 56.0767 0.5 43.7645 0.5 28.5767Z" fill="white" stroke="#9D9D9D" stroke-width="0.25"/>
<path d="M27.9998 21.2678C30.2375 21.2678 31.7469 22.2344 32.6076 23.042L35.9707 19.7583C33.9052 17.8384 31.2173 16.66 27.9998 16.66C23.3391 16.66 19.3139 19.3346 17.3542 23.2274L21.2073 26.2198C22.1739 23.3466 24.8485 21.2678 27.9998 21.2678V21.2678Z" fill="#EA4335"/>
<path d="M39.44 28.8415C39.44 27.8617 39.3606 27.1467 39.1884 26.4052H28V30.8276H34.5674C34.435 31.9266 33.72 33.5817 32.1311 34.6939L35.8915 37.6068C38.1424 35.5281 39.44 32.4694 39.44 28.8415V28.8415Z" fill="#4285F4"/>
<path d="M21.2207 30.9335C20.9691 30.192 20.8234 29.3976 20.8234 28.5767C20.8234 27.7558 20.9691 26.9613 21.2074 26.2198L17.3544 23.2274C16.5467 24.8428 16.0833 26.6568 16.0833 28.5767C16.0833 30.4966 16.5467 32.3106 17.3544 33.9259L21.2207 30.9335V30.9335Z" fill="#FBBC05"/>
<path d="M28 40.4933C31.2175 40.4933 33.9186 39.4341 35.8915 37.6069L32.1311 34.6939C31.1248 35.3956 29.7743 35.8856 28 35.8856C24.8487 35.8856 22.1741 33.8068 21.2207 30.9335L17.3677 33.9259C19.3273 37.8187 23.3392 40.4933 28 40.4933V40.4933Z" fill="#34A853"/>
</svg>
