<svg width="104" height="21" viewBox="0 0 104 21" fill="none" xmlns="http://www.w3.org/2000/svg">
<path d="M8.5807 2.61021C8.45242 2.48151 8.29539 2.40896 8.12056 2.40896C8.06256 2.40896 8.00427 2.42022 7.95184 2.43118C7.89355 2.19668 7.74215 2.0064 7.4859 1.81078C7.32299 1.6879 7.1484 1.60947 7.13666 1.46951H8.5807V2.61021ZM3.0436 3.68913C2.8978 3.48225 2.72906 3.29783 2.54862 3.15224V3.14685C2.54862 2.70523 2.28649 2.45365 2.04192 2.21891C1.86148 2.03989 1.77419 1.9505 1.77419 1.79952C1.77419 1.56477 1.95463 1.46951 2.21675 1.46951H3.0436V3.68913ZM15.4106 4.65643V1.46951H16.0221C16.3304 1.46951 16.4413 1.80515 16.4413 2.3083V4.55578L17.1341 4.65643V2.51524C17.1341 2.10705 17.1633 1.75482 17.2447 1.46951H17.7744L17.6522 0.916029H16.6974C16.6508 1.03939 16.6101 1.16221 16.575 1.28534C16.4586 1.03376 16.3013 0.916029 16.0568 0.916029H15.9287H15.8183H11.5097H11.3873H10.5545C10.508 1.03939 10.4673 1.16221 10.4324 1.28534C10.3156 1.03376 10.1586 0.916029 9.91401 0.916029H9.78574H9.67526H5.97235H5.84994H5.01701C4.97066 1.03939 4.92994 1.16221 4.89507 1.28534C4.77829 1.03376 4.62125 0.916029 4.37668 0.916029H4.2489H4.13796H0.697144L0.819311 1.46951H1.03463C1.01146 1.52547 0.99952 1.59287 0.99952 1.6598C0.99952 1.9451 1.18581 2.10142 1.34332 2.23556C1.62861 2.47588 1.7915 2.63807 1.82661 2.84495H1.82076C1.46549 2.84495 1.22092 3.07969 1.22092 3.365C1.22092 3.66666 1.48304 3.90703 1.84416 3.90703C2.03607 3.90703 2.21066 3.84011 2.33892 3.71136C2.62982 3.90164 2.86901 4.17545 3.0436 4.55578L3.73635 4.65643V1.46951H4.26036H4.34181C4.6505 1.46951 4.7612 1.80515 4.7612 2.3083V4.55578L5.45395 4.65643V2.51524C5.45395 2.10705 5.48321 1.75482 5.56442 1.46951H5.97235H6.09451H6.36225C6.39151 1.78855 6.60682 1.91137 7.06087 2.15738C7.31712 2.3083 7.41634 2.43118 7.41634 2.62686C7.41634 2.73309 7.38123 2.82811 7.2998 2.92337C7.27638 2.9456 7.25301 2.9737 7.22395 3.00132C6.93894 3.281 6.83386 3.3203 6.75237 3.3203C6.68851 3.3203 6.61267 3.29783 6.53099 3.11905L6.10598 3.39849C6.28666 3.80099 6.57195 3.98007 6.87478 3.98007C7.07842 3.98007 7.2998 3.89601 7.64898 3.5548C7.92842 3.28663 8.06838 3.06309 8.25471 3.06309C8.41174 3.06309 8.5807 3.21407 8.5807 3.50448V4.55578L9.27366 4.65643V1.46951H9.79766H9.87914C10.1878 1.46951 10.2985 1.80515 10.2985 2.3083V4.55578L10.9913 4.65643V2.51524C10.9913 2.10705 11.0206 1.75482 11.102 1.46951H11.5097H11.6319H14.7179V2.27463C14.5372 2.06799 14.316 1.97836 14.0773 1.97836C13.8095 1.97836 13.5998 2.09603 13.4657 2.30273C13.2797 2.08458 13.0234 1.95607 12.6913 1.95607C12.1092 1.95607 11.6843 2.35863 11.6843 2.95686C11.6843 3.66109 12.2839 4.2368 12.8954 4.2368C13.2797 4.2368 13.5009 4.01326 13.5009 3.73382C13.5009 3.45978 13.2912 3.25853 13.0234 3.25853C12.7672 3.25853 12.5809 3.43755 12.5809 3.65007C12.4292 3.56625 12.3304 3.39286 12.3304 3.17495C12.3304 2.84495 12.5575 2.63249 12.872 2.63249C13.14 2.63249 13.3263 2.80001 13.3263 3.06309L13.8849 3.16351C13.8849 2.85034 14.0365 2.61021 14.2811 2.61021C14.5257 2.61021 14.7179 2.87305 14.7179 3.44318V4.55578L15.4106 4.65643Z" fill="#B81E25"/>
<path d="M21.1112 3.79544C20.7908 3.43757 20.3717 3.0966 19.9059 2.88409C20.2958 2.67721 20.715 2.51526 21.1112 2.40335V3.79544ZM32.7389 3.79544C32.4185 3.43757 31.9993 3.0966 31.5334 2.88409C31.9237 2.67721 32.3429 2.51526 32.7389 2.40335V3.79544ZM24.1621 1.46953H25.7166C25.4023 1.73237 25.1984 2.05111 25.1984 2.39753C25.1984 2.90656 25.6527 3.34255 26.2116 3.34255C26.4096 3.34255 26.6076 3.28665 26.7707 3.186C26.7882 3.23632 26.7939 3.28102 26.7939 3.32595C26.7939 3.59976 26.5379 3.8345 26.1128 3.8345C25.4374 3.8345 24.8376 3.25292 24.6279 1.77144L24.0573 1.92805C24.3833 3.76171 25.2567 4.50547 26.2174 4.50547C26.9802 4.50547 27.3589 4.05265 27.3589 3.4713C27.3589 3.06874 27.1782 2.71088 26.7882 2.39214C26.602 2.63251 26.3633 2.7947 26.1299 2.7947C25.9441 2.7947 25.8158 2.68278 25.8158 2.50376C25.8158 2.25805 26.0602 1.94513 26.404 1.71015C26.7066 2.19107 27.1548 2.44247 27.6673 2.44247C27.6905 2.44247 27.708 2.44247 27.7315 2.44247C27.6497 2.69405 27.6093 2.97911 27.6093 3.27563C27.6093 3.58292 27.6556 4.08027 27.7839 4.66742L28.3313 4.56682C28.2264 4.04701 28.203 3.70581 28.203 3.4432C28.203 2.85036 28.3193 2.53186 28.5234 2.21893L28.1042 1.74388C27.8597 1.83884 27.5976 1.87209 27.4751 1.87209C27.2075 1.87209 26.986 1.72674 26.8407 1.4754L26.8524 1.46953H28.7446H28.826C29.1348 1.46953 29.2454 1.80517 29.2454 2.30832V4.5558L29.9382 4.65645V2.51526C29.9382 2.10707 29.9674 1.75484 30.0486 1.46953H30.4561H30.5785H32.7389V1.69355C32.0752 1.83327 31.3005 2.11834 30.567 2.57656L30.9689 3.34818C31.7955 3.59413 32.3895 4.01328 32.7389 4.5558L33.4316 4.65645V1.46953H34.0661L33.9442 0.916051H30.4561H30.3342H29.5015C29.4549 1.03941 29.4142 1.16224 29.3791 1.28536C29.2627 1.03378 29.1055 0.916051 28.8609 0.916051H28.7329H28.6222H24.0397H23.9175H23.0849C23.0385 1.03941 22.9976 1.16224 22.9627 1.28536C22.8462 1.03378 22.6891 0.916051 22.4445 0.916051H22.3165H22.2058H18.7065L18.8287 1.46953H21.1112V1.69355C20.4473 1.83327 19.6731 2.11834 18.9394 2.57656L19.341 3.34818C20.1676 3.59413 20.7616 4.01328 21.1112 4.5558L21.8037 4.65645V1.46953H22.3277H22.4095C22.7181 1.46953 22.8286 1.80517 22.8286 2.30832V4.5558L23.5218 4.65645V2.51526C23.5218 2.10707 23.5506 1.75484 23.6323 1.46953H24.0397H24.1621Z" fill="#21305A"/>
<path d="M31.4988 3.99596C31.2425 3.99596 31.0851 4.15802 31.0851 4.38753C31.0851 4.6002 31.2425 4.77353 31.4929 4.77353C31.7552 4.77353 31.9123 4.6002 31.9123 4.38753C31.9123 4.15802 31.7552 3.99596 31.4988 3.99596Z" fill="#21305A"/>
<path d="M29.7699 11.3156L29.7442 11.3051L29.717 11.2988C28.8148 11.071 27.8897 10.8307 26.968 10.5838C25.8019 10.243 25.8019 9.72748 25.8019 9.55775C25.8019 9.21798 25.95 8.96101 26.2673 8.74874C26.631 8.50483 27.1649 8.38129 27.8532 8.38129C28.5396 8.38129 29.083 8.51513 29.4685 8.77911C29.8224 9.02158 30.015 9.33475 30.0571 9.73635L30.1432 10.562L31.3974 9.51006L31.3473 9.25447C31.2017 8.51232 30.803 7.92445 30.1617 7.50739C29.5518 7.11094 28.7661 6.90987 27.8267 6.90987C26.8929 6.90987 26.0803 7.14719 25.4122 7.61553C24.6948 8.11821 24.3309 8.77564 24.3309 9.56973C24.3309 10.3027 24.641 11.2934 26.1175 11.8511L26.1639 11.8663C27.0327 12.0887 27.9292 12.3168 28.904 12.5637C29.9466 12.8954 30.0679 13.3653 30.0679 13.6906C30.0679 14.0728 29.8984 14.3605 29.5347 14.5957C29.1205 14.8643 28.5724 15.0006 27.9056 15.0006C27.1768 15.0006 26.5844 14.8473 26.144 14.5454C25.7312 14.2633 25.4952 13.858 25.4225 13.3068L25.342 12.696L23.9796 13.3677L24.0451 13.6993C24.2347 14.6596 24.685 15.382 25.3852 15.8485C26.012 16.2622 26.8285 16.4717 27.8124 16.4717C28.9024 16.4717 29.794 16.2276 30.4634 15.7467C31.1772 15.2322 31.539 14.5308 31.539 13.6614C31.539 12.9078 31.2322 11.889 29.7699 11.3156Z" fill="#B81E25"/>
<path d="M50.3027 12.7413C50.3027 13.369 50.0572 13.8881 49.5517 14.3273C49.0277 14.7825 48.3677 15.0037 47.5334 15.0037C46.7997 15.0037 46.2286 14.8516 45.8359 14.5508C45.4699 14.2719 45.2992 13.9353 45.2992 13.4918C45.2992 12.9156 45.4977 12.496 45.9061 12.2082C46.3571 11.8898 47.1016 11.7291 48.1185 11.7291C48.832 11.7291 49.4333 11.777 49.9051 11.8707C50.1024 11.9104 50.2269 11.9456 50.3027 11.9717V12.7413ZM48.2926 6.90952C47.283 6.90952 46.4416 7.13186 45.7893 7.57115C45.2911 7.91074 44.9402 8.33481 44.7471 8.83143L44.6428 9.0999L45.4242 9.88183L45.7205 9.42242C45.8518 9.21901 46.0643 9.02615 46.352 8.84922C46.8572 8.53845 47.4875 8.38118 48.2243 8.38118C48.9233 8.38118 49.4595 8.51898 49.8185 8.79051C50.1445 9.03765 50.3027 9.42871 50.3027 9.98668V10.1577C50.2692 10.1706 50.2162 10.1872 50.1364 10.2024C49.8148 10.2633 49.1885 10.2942 48.2745 10.2942C46.8766 10.2942 45.7872 10.557 45.0369 11.0742C44.2346 11.6272 43.8279 12.43 43.8279 13.4602C43.8279 14.3678 44.1885 15.1114 44.8997 15.6707C45.5789 16.2043 46.487 16.4753 47.5987 16.4753C48.3607 16.4753 49.0706 16.3003 49.708 15.9551C49.9255 15.8369 50.124 15.7026 50.3027 15.5509V16.4781H51.7559V9.87081C51.7559 8.52042 51.1549 6.90952 48.2926 6.90952Z" fill="#B81E25"/>
<path d="M38.643 12.7417C38.643 13.3694 38.3973 13.8885 37.892 14.3278C37.3679 14.783 36.7077 15.0041 35.8734 15.0041C35.1397 15.0041 34.5687 14.852 34.1757 14.552C33.8099 14.2723 33.6393 13.9358 33.6393 13.4922C33.6393 12.916 33.8375 12.4964 34.2459 12.2086C34.6971 11.8903 35.4416 11.7295 36.4587 11.7295C37.1721 11.7295 37.7731 11.7774 38.2454 11.8711C38.4427 11.9109 38.5664 11.946 38.643 11.9722V12.7417ZM36.6321 6.90995C35.6232 6.90995 34.7816 7.13229 34.1296 7.57181C33.6308 7.9114 33.28 8.33571 33.0872 8.8321L32.983 9.10033L33.7645 9.88226L34.0608 9.42284C34.1919 9.21968 34.4039 9.02681 34.6922 8.84965C35.1977 8.53888 35.8275 8.38161 36.5638 8.38161C37.2633 8.38161 37.7996 8.51941 38.1586 8.79093C38.4843 9.03808 38.643 9.42913 38.643 9.98711V10.1582C38.609 10.171 38.5561 10.1876 38.4759 10.2029C38.1545 10.2637 37.5283 10.2946 36.6143 10.2946C35.2164 10.2946 34.127 10.5574 33.3767 11.0747C32.5747 11.6277 32.1677 12.4304 32.1677 13.4607C32.1677 14.3687 32.5285 15.1125 33.2395 15.6712C33.9189 16.2048 34.827 16.4758 35.9387 16.4758C36.7007 16.4758 37.4101 16.3007 38.0478 15.9555C38.2653 15.8373 38.4639 15.703 38.643 15.5513V16.4786H40.0957V9.87124C40.0957 8.52084 39.4949 6.90995 36.6321 6.90995Z" fill="#B81E25"/>
<path d="M41.5125 16.5299H42.9902V3.38966H41.5125V16.5299Z" fill="#B81E25"/>
<path d="M21.5038 12.7417C21.5038 13.3694 21.2583 13.8885 20.7525 14.3278C20.229 14.783 19.5687 15.0041 18.7344 15.0041C18.0007 15.0041 17.4299 14.852 17.0367 14.5513C16.6707 14.2723 16.5003 13.9358 16.5003 13.4922C16.5003 12.916 16.6988 12.4964 17.1071 12.2086C17.5584 11.8903 18.3026 11.7295 19.3197 11.7295C20.0331 11.7295 20.6341 11.7774 21.1064 11.8711C21.3034 11.9109 21.4275 11.946 21.5038 11.9722V12.7417ZM19.4932 6.90995C18.484 6.90995 17.6426 7.13229 16.9901 7.57181C16.4916 7.91116 16.141 8.33523 15.9482 8.8321L15.844 9.10033L16.625 9.88226L16.9218 9.42284C17.0529 9.21944 17.2651 9.02658 17.553 8.84965C18.0585 8.53888 18.6886 8.38161 19.4251 8.38161C20.1239 8.38161 20.6608 8.51941 21.0193 8.79093C21.3454 9.03808 21.5038 9.42913 21.5038 9.98711V10.1582C21.4701 10.171 21.417 10.1876 21.3372 10.2029C21.0154 10.2637 20.3891 10.2946 19.4754 10.2946C18.0578 10.2946 16.9988 10.5499 16.2375 11.0747C15.4357 11.6277 15.0287 12.4304 15.0287 13.4607C15.0287 14.3687 15.3893 15.1118 16.1006 15.6712C16.7799 16.2048 17.6881 16.4758 18.7997 16.4758C19.5617 16.4758 20.2713 16.3007 20.9088 15.9555C21.1263 15.8373 21.3245 15.703 21.5038 15.5513V16.4786H22.9569V9.87124C22.9569 8.52084 22.3562 6.90995 19.4932 6.90995Z" fill="#B81E25"/>
<path d="M10.9259 6.9096C10.1159 6.9096 9.40028 7.09916 8.79881 7.47339C8.4407 7.69572 8.1355 7.97217 7.88602 8.29929C7.67327 7.98385 7.40156 7.71352 7.07276 7.49118C6.50264 7.10504 5.80544 6.9096 5.00176 6.9096C4.19784 6.9096 3.47818 7.11954 2.86195 7.53378C2.67753 7.6578 2.50692 7.79734 2.35105 7.9518V6.94189H0.854614V16.4567H2.35105V11.0919C2.35105 10.302 2.57666 9.65999 3.04029 9.13018C3.48871 8.61738 4.0731 8.36766 4.82553 8.36766C6.28475 8.36766 6.93513 9.00004 6.93513 10.4174V16.4567H8.43201V10.6432C8.43201 9.99659 8.65435 9.46857 9.11215 9.02856C9.57439 8.58388 10.167 8.36766 10.9236 8.36766C12.3709 8.36766 13.0159 9.00004 13.0159 10.4174V16.4567H14.5128V10.3647C14.5128 9.25558 14.191 8.39156 13.5565 7.79542C12.9298 7.20779 12.0449 6.9096 10.9259 6.9096Z" fill="#B81E25"/>
<path d="M103.175 6.91004C102.297 6.91004 101.537 7.10877 100.911 7.50144C100.649 7.66669 100.413 7.8647 100.202 8.09429V6.96456H98.7058V16.4857H100.202V11.5417C100.202 10.605 100.476 9.86312 101.042 9.27381C101.601 8.69061 102.311 8.40674 103.21 8.40674H103.791V6.91004H103.175Z" fill="#21305A"/>
<path d="M91.9722 12.2082C92.424 11.8898 93.1687 11.7291 94.1854 11.7291C94.899 11.7291 95.4999 11.777 95.972 11.8707C96.1692 11.9104 96.2938 11.9456 96.3693 11.9717V12.7413C96.3693 13.369 96.1236 13.8881 95.6186 14.3273C95.0955 14.7825 94.4347 15.0037 93.6001 15.0037C92.8661 15.0037 92.2952 14.8516 91.9027 14.5516C91.536 14.2719 91.3659 13.9353 91.3659 13.4918C91.3659 12.9156 91.5648 12.496 91.9722 12.2082ZM90.9663 15.6707C91.6457 16.2043 92.554 16.4753 93.6648 16.4753C94.4281 16.4753 95.1369 16.3003 95.7749 15.9551C95.9924 15.8369 96.1901 15.7026 96.3693 15.5509V16.4781H97.8222V9.87081C97.8222 8.52042 97.2212 6.90952 94.358 6.90952C93.3496 6.90952 92.5078 7.13186 91.8566 7.57139C91.3575 7.91074 91.0076 8.33481 90.8135 8.83167L90.7098 9.0999L91.4917 9.88183L91.7877 9.4217C91.9189 9.21901 92.131 9.02615 92.4186 8.84922C92.9248 8.53845 93.5545 8.38118 94.2909 8.38118C94.9901 8.38118 95.5275 8.51898 95.8852 8.79051C96.2111 9.03765 96.3693 9.42871 96.3693 9.98668V10.1577C96.3363 10.1706 96.2824 10.1872 96.2033 10.2024C95.881 10.2633 95.2543 10.2942 94.3412 10.2942C92.9236 10.2942 91.8638 10.5495 91.1029 11.0742C90.3012 11.6272 89.895 12.4293 89.895 13.4602C89.895 14.3678 90.2557 15.1114 90.9663 15.6707Z" fill="#21305A"/>
<path d="M55.433 9.21C56.0726 8.58978 56.8927 8.28835 57.9412 8.28835C58.9291 8.28788 59.7112 8.59565 60.333 9.22822C60.9567 9.8627 61.2604 10.6589 61.2604 11.6618C61.2604 12.6424 60.9627 13.4217 60.3501 14.045C59.7393 14.6663 58.9681 14.9675 57.9922 14.9675C56.8957 14.9675 56.0363 14.6167 55.3658 13.8945C54.7749 13.2532 54.4875 12.5396 54.4875 11.7128C54.4875 10.6456 54.7971 9.82693 55.433 9.21ZM54.4875 15.1438C54.7445 15.404 55.0347 15.6271 55.3569 15.8119C56.0918 16.2332 56.9301 16.4467 57.8506 16.4467C59.27 16.4467 60.4508 16.0043 61.3605 15.1325C62.2754 14.2556 62.7391 13.0877 62.7391 11.6618C62.7391 10.2283 62.2868 9.0492 61.3952 8.15565C60.5034 7.26233 59.325 6.80945 57.8934 6.80897C57.0099 6.80897 56.1756 7.03131 55.4124 7.46874C55.0679 7.66651 54.759 7.90712 54.4875 8.18866V3.44422H53.0084V16.4743H54.4875V15.1438Z" fill="#21305A"/>
<path d="M80.7743 15.01H74.7308L80.7995 7.79552L80.7845 6.93618H72.1611V8.42485H78.2442L72.2043 15.6391L72.2055 16.498H80.7743V15.01Z" fill="#21305A"/>
<path d="M86.7753 14.3273C86.2511 14.7825 85.592 15.0037 84.7568 15.0037C84.0229 15.0037 83.4519 14.8516 83.0595 14.5516C82.6934 14.2719 82.5226 13.9353 82.5226 13.4918C82.5226 12.9156 82.7216 12.496 83.129 12.2082C83.5807 11.8898 84.3255 11.7291 85.3428 11.7291C86.0558 11.7291 86.6567 11.777 87.1294 11.8707C87.3265 11.9104 87.4505 11.9456 87.526 11.9717V12.7413C87.526 13.369 87.281 13.8881 86.7753 14.3273ZM88.9801 9.87081C88.9801 8.52042 88.3792 6.90952 85.5165 6.90952C84.507 6.90952 83.6652 7.13186 83.0133 7.57139C82.5143 7.91074 82.1644 8.33481 81.9714 8.83143L81.8666 9.0999L82.6485 9.88183L82.945 9.4217C83.0751 9.21901 83.2883 9.02639 83.5753 8.84922C84.081 8.53845 84.7113 8.38118 85.4476 8.38118C86.1468 8.38118 86.6836 8.51898 87.0419 8.79051C87.3679 9.03765 87.526 9.42871 87.526 9.98668V10.1577C87.4931 10.1706 87.4398 10.1872 87.3607 10.2024C87.0389 10.2633 86.4122 10.2942 85.498 10.2942C84.0798 10.2942 83.0211 10.5495 82.2596 11.0742C81.458 11.6272 81.0506 12.43 81.0506 13.4602C81.0506 14.3683 81.4124 15.1121 82.1236 15.6707C82.8024 16.2043 83.7107 16.4753 84.8215 16.4753C85.5848 16.4753 86.2942 16.3003 86.9317 15.9551C87.1492 15.8369 87.3475 15.7026 87.526 15.5509V16.4781H88.9801V9.87081Z" fill="#21305A"/>
<path d="M65.5543 12.2086C66.0054 11.8903 66.7495 11.7295 67.7675 11.7295C68.4804 11.7295 69.0814 11.7774 69.5535 11.8711C69.7506 11.9109 69.8746 11.946 69.9507 11.9722V12.7417C69.9507 13.3694 69.7051 13.8885 69.2 14.3278C68.6764 14.783 68.0161 15.0041 67.1815 15.0041C66.4476 15.0041 65.8766 14.852 65.4842 14.552C65.1181 14.2723 64.9473 13.9358 64.9473 13.4922C64.9473 12.916 65.1463 12.4964 65.5543 12.2086ZM64.5477 15.6712C65.2271 16.2048 66.1354 16.4758 67.2468 16.4758C68.0095 16.4758 68.7189 16.3007 69.3558 15.9555C69.5733 15.8373 69.7722 15.703 69.9507 15.5513V16.4786H71.4042V9.87124C71.4042 8.52084 70.8033 6.90995 67.9406 6.90995C66.9311 6.90995 66.0899 7.13229 65.4374 7.57181C64.9389 7.9114 64.5885 8.33523 64.3955 8.8321L64.2913 9.10033L65.0726 9.88226L65.3697 9.42212C65.4997 9.21968 65.7124 9.02681 66 8.84965C66.5057 8.53888 67.136 8.38161 67.8723 8.38161C68.5715 8.38161 69.1083 8.51941 69.466 8.79093C69.7926 9.03808 69.9507 9.42913 69.9507 9.98711V10.1582C69.9172 10.171 69.8644 10.1876 69.7848 10.2029C69.4636 10.2637 68.8369 10.2946 67.9227 10.2946C66.5243 10.2946 65.435 10.5574 64.6849 11.0747C63.8827 11.6277 63.4759 12.4304 63.4759 13.4607C63.4759 14.3687 63.8365 15.1125 64.5477 15.6712Z" fill="#21305A"/>
<path d="M55.2191 19.0236C55.1523 19.2635 55.0973 19.4776 55.0641 19.6836H55.0513C55.0049 19.4776 54.9464 19.2635 54.8703 19.0196L54.5551 18.002H54.2438L53.9115 19.0407C53.8441 19.2588 53.7769 19.4776 53.7306 19.6836H53.7184C53.6803 19.4737 53.6253 19.2635 53.5668 19.0365L53.2972 18.002H52.9189L53.5328 20.037H53.8698L54.1975 19.0699C54.2688 18.8516 54.3321 18.6412 54.3824 18.3971H54.3906C54.4413 18.637 54.5006 18.8387 54.5719 19.0657L54.8832 20.037H55.2191L55.8755 18.002H55.5092L55.2191 19.0236Z" fill="#21305A"/>
<path d="M58.3632 19.0236C58.2958 19.2635 58.2415 19.4776 58.2083 19.6836H58.1954C58.1491 19.4776 58.0901 19.2635 58.0145 19.0196L57.6985 18.002H57.3873L57.0549 19.0407C56.9883 19.2588 56.9204 19.4776 56.8747 19.6836H56.8619C56.824 19.4737 56.7695 19.2635 56.7104 19.0365L56.4411 18.002H56.0627L56.677 20.037H57.0135L57.3416 19.0699C57.413 18.8516 57.4763 18.6412 57.5265 18.3971H57.5347C57.5851 18.637 57.644 18.8387 57.7157 19.0657L58.0269 20.037H58.3632L59.0192 18.002H58.6534L58.3632 19.0236Z" fill="#21305A"/>
<path d="M61.507 19.0236C61.4399 19.2635 61.3853 19.4776 61.3518 19.6836H61.3386C61.2931 19.4776 61.2338 19.2635 61.1583 19.0196L60.8425 18.002H60.5313L60.199 19.0407C60.1316 19.2588 60.0644 19.4776 60.018 19.6836H60.0052C59.9678 19.4737 59.9128 19.2635 59.8542 19.0365L59.5851 18.002H59.2066L59.8203 20.037H60.1573L60.4854 19.0699C60.557 18.8516 60.6202 18.6412 60.6706 18.3971H60.679C60.7287 18.637 60.788 18.8387 60.8593 19.0657L61.1708 20.037H61.507L62.163 18.002H61.7975L61.507 19.0236Z" fill="#21305A"/>
<path d="M62.5321 19.5533C62.3846 19.5533 62.2791 19.6622 62.2791 19.8179C62.2791 19.9702 62.3798 20.084 62.5273 20.084C62.6832 20.084 62.7803 19.9702 62.7803 19.8179C62.7803 19.6622 62.679 19.5533 62.5321 19.5533Z" fill="#21305A"/>
<path d="M65.4749 17.9552C65.2813 17.9552 65.1471 18.0062 65.0243 18.0987C64.9404 18.1619 64.8607 18.2501 64.7978 18.3636H64.7894C64.7008 18.1237 64.4911 17.9552 64.2131 17.9552C63.8764 17.9552 63.6876 18.1368 63.5744 18.3297H63.5612L63.5444 18.002H63.2209C63.2329 18.1701 63.2377 18.3426 63.2377 18.5527V20.037H63.5996V18.8095C63.5996 18.7463 63.6074 18.6831 63.6283 18.6281C63.6876 18.4432 63.8554 18.2583 64.0873 18.2583C64.3689 18.2583 64.512 18.4937 64.512 18.8177V20.037H64.8733V18.7797C64.8733 18.7123 64.8859 18.6452 64.9027 18.5948C64.9662 18.4139 65.1298 18.2583 65.3407 18.2583C65.639 18.2583 65.7822 18.4937 65.7822 18.8851V20.037H66.1441V18.8387C66.1441 18.1319 65.7445 17.9552 65.4749 17.9552Z" fill="#21305A"/>
<path d="M67.8159 19.3519C67.8159 19.3901 67.8075 19.432 67.7943 19.4694C67.7356 19.6421 67.5678 19.8099 67.3024 19.8099C67.1137 19.8099 66.9531 19.6964 66.9531 19.4565C66.9531 19.0617 67.4121 18.9896 67.8159 18.9985V19.3519ZM68.173 18.7884C68.173 18.38 68.022 17.9552 67.3989 17.9552C67.1431 17.9552 66.8986 18.0273 66.7309 18.1368L66.8147 18.38C66.9579 18.2875 67.1556 18.2292 67.3444 18.2292C67.7608 18.2292 67.8075 18.5316 67.8075 18.7001V18.7415C67.0208 18.738 66.5835 19.0072 66.5835 19.4987C66.5835 19.7935 66.7938 20.084 67.206 20.084C67.4959 20.084 67.7152 19.9405 67.8285 19.7807H67.8411L67.8698 20.0369H68.2071C68.1814 19.8984 68.173 19.7257 68.173 19.549V18.7884Z" fill="#21305A"/>
<path d="M69.4245 18.8553C69.1603 18.7546 69.0381 18.6793 69.0381 18.5108C69.0381 18.3593 69.1603 18.2334 69.3784 18.2334C69.5671 18.2334 69.7157 18.3006 69.7948 18.3509L69.8876 18.082C69.7738 18.0146 69.5929 17.9554 69.3874 17.9554C68.9494 17.9554 68.6846 18.2245 68.6846 18.5529C68.6846 18.7968 68.8571 18.9987 69.2226 19.1291C69.4958 19.2297 69.6018 19.3269 69.6018 19.5036C69.6018 19.6716 69.4748 19.8062 69.2058 19.8062C69.0207 19.8062 68.8278 19.7306 68.7181 19.6592L68.6253 19.9407C68.7685 20.025 68.9746 20.0793 69.1974 20.0793C69.6815 20.0793 69.9589 19.8272 69.9589 19.4696C69.9589 19.1665 69.7786 18.9898 69.4245 18.8553Z" fill="#21305A"/>
<path d="M71.5055 19.3519C71.5055 19.3901 71.4971 19.432 71.4845 19.4694C71.4252 19.6421 71.2574 19.8099 70.992 19.8099C70.8033 19.8099 70.6427 19.6964 70.6427 19.4565C70.6427 19.0617 71.1017 18.9896 71.5055 18.9985V19.3519ZM71.8626 18.7884C71.8626 18.38 71.7116 17.9552 71.0885 17.9552C70.8321 17.9552 70.5888 18.0273 70.4199 18.1368L70.5043 18.38C70.6469 18.2875 70.8452 18.2292 71.0346 18.2292C71.4504 18.2292 71.4971 18.5316 71.4971 18.7001V18.7415C70.711 18.738 70.2725 19.0072 70.2725 19.4987C70.2725 19.7935 70.4834 20.084 70.8956 20.084C71.1862 20.084 71.4048 19.9405 71.5181 19.7807H71.5307L71.56 20.0369H71.8961C71.871 19.8984 71.8626 19.7257 71.8626 19.549V18.7884Z" fill="#21305A"/>
<path d="M72.4596 20.037H72.8293V17.0514H72.4596V20.037Z" fill="#21305A"/>
<path d="M74.5237 19.3519C74.5237 19.3901 74.5153 19.432 74.5027 19.4694C74.4434 19.6421 74.2757 19.8099 74.0103 19.8099C73.8215 19.8099 73.661 19.6964 73.661 19.4565C73.661 19.0617 74.1199 18.9896 74.5237 18.9985V19.3519ZM74.8814 18.7884C74.8814 18.38 74.7298 17.9552 74.1073 17.9552C73.8509 17.9552 73.607 18.0273 73.4387 18.1368L73.5226 18.38C73.6658 18.2875 73.8635 18.2292 74.0528 18.2292C74.4686 18.2292 74.5153 18.5316 74.5153 18.7001V18.7415C73.7293 18.738 73.2913 19.0072 73.2913 19.4987C73.2913 19.7935 73.5016 20.084 73.9138 20.084C74.2044 20.084 74.4225 19.9405 74.5363 19.7807H74.5489L74.5782 20.0369H74.9144C74.8892 19.8984 74.8814 19.7257 74.8814 19.549V18.7884Z" fill="#21305A"/>
<path d="M76.4144 19.7889C76.1454 19.7889 75.9309 19.6122 75.859 19.3559C75.8512 19.3138 75.8422 19.2677 75.8422 19.2213V18.8551C75.8422 18.7965 75.8554 18.7462 75.8632 18.7041C75.9393 18.4221 76.1747 18.2501 76.4276 18.2501C76.8224 18.2501 77.0327 18.5988 77.0327 19.0072C77.0327 19.4736 76.8014 19.7889 76.4144 19.7889ZM76.5444 17.9552C76.2167 17.9552 75.9812 18.1026 75.8512 18.3296H75.8422V17.0513H75.4767V19.5115C75.4767 19.6924 75.4677 19.8984 75.4594 20.0369H75.7793L75.7961 19.7011H75.8087C75.9602 19.9702 76.1957 20.084 76.4899 20.084C76.9446 20.084 77.403 19.7217 77.403 18.9943C77.4072 18.376 77.0495 17.9552 76.5444 17.9552Z" fill="#21305A"/>
<path d="M78.9406 19.3519C78.9406 19.3901 78.9322 19.432 78.9197 19.4694C78.8609 19.6421 78.6926 19.8099 78.4278 19.8099C78.2384 19.8099 78.0785 19.6964 78.0785 19.4565C78.0785 19.0617 78.5368 18.9896 78.9406 18.9985V19.3519ZM79.2989 18.7884C79.2989 18.38 79.1473 17.9552 78.5248 17.9552C78.2678 17.9552 78.024 18.0273 77.8556 18.1368L77.9395 18.38C78.0827 18.2875 78.2804 18.2292 78.4697 18.2292C78.8861 18.2292 78.9323 18.5316 78.9323 18.7001V18.7415C78.1462 18.738 77.7082 19.0072 77.7082 19.4987C77.7082 19.7935 77.9185 20.084 78.3307 20.084C78.6213 20.084 78.84 19.9405 78.9532 19.7807H78.9664L78.9958 20.0369H79.3319C79.3067 19.8984 79.2989 19.7257 79.2989 19.549V18.7884Z" fill="#21305A"/>
<path d="M80.1254 19.7346C80.2182 19.6293 80.3021 19.528 80.386 19.4144L81.2949 18.2333L81.2985 18.002H79.7473V18.3004H80.8491V18.3086C80.7563 18.4181 80.6724 18.5146 80.5837 18.6246L79.6628 19.8228V20.037H81.3159V19.7428H80.1254V19.7346Z" fill="#21305A"/>
<path d="M82.7657 19.3519C82.7657 19.3901 82.7573 19.432 82.7448 19.4694C82.6854 19.6421 82.5177 19.8099 82.2523 19.8099C82.0635 19.8099 81.903 19.6964 81.903 19.4565C81.903 19.0617 82.3619 18.9896 82.7657 18.9985V19.3519ZM83.1228 18.7884C83.1228 18.38 82.9712 17.9552 82.3487 17.9552C82.0929 17.9552 81.8485 18.0273 81.6807 18.1368L81.7646 18.38C81.9078 18.2875 82.1055 18.2292 82.2948 18.2292C82.7106 18.2292 82.7573 18.5316 82.7573 18.7001V18.7415C81.9713 18.738 81.5333 19.0072 81.5333 19.4987C81.5333 19.7935 81.7436 20.084 82.1558 20.084C82.4464 20.084 82.6651 19.9405 82.7783 19.7807H82.7909L82.8203 20.0369H83.1564C83.1312 19.8984 83.1228 19.7257 83.1228 19.549V18.7884Z" fill="#21305A"/>
<path d="M84.7913 19.3519C84.7913 19.3901 84.783 19.432 84.7698 19.4694C84.7111 19.6421 84.5433 19.8099 84.2779 19.8099C84.0892 19.8099 83.9286 19.6964 83.9286 19.4565C83.9286 19.0617 84.3875 18.9896 84.7913 18.9985V19.3519ZM85.1484 18.7884C85.1484 18.38 84.9968 17.9552 84.3743 17.9552C84.1185 17.9552 83.8741 18.0273 83.7063 18.1368L83.7902 18.38C83.9334 18.2875 84.1311 18.2292 84.3198 18.2292C84.7362 18.2292 84.783 18.5316 84.783 18.7001V18.7415C83.9963 18.738 83.5589 19.0072 83.5589 19.4987C83.5589 19.7935 83.7692 20.084 84.1814 20.084C84.4714 20.084 84.6901 19.9405 84.8039 19.7807H84.8165L84.8453 20.0369H85.182C85.1568 19.8984 85.1484 19.7257 85.1484 19.549V18.7884Z" fill="#21305A"/>
<path d="M86.0814 18.4011H86.0646L86.0514 18.002H85.7279C85.7405 18.1911 85.7447 18.3971 85.7447 18.637V20.037H86.1107V18.9522C86.1107 18.889 86.1191 18.8308 86.1275 18.7797C86.1778 18.5024 86.363 18.3046 86.6236 18.3046C86.6745 18.3046 86.7123 18.3086 86.75 18.3168V17.9681C86.7159 17.9599 86.6871 17.9552 86.6446 17.9552C86.3965 17.9552 86.1736 18.1279 86.0814 18.4011Z" fill="#21305A"/>
<path d="M87.0606 19.5533C86.9131 19.5533 86.8082 19.6622 86.8082 19.8179C86.8082 19.9702 86.9089 20.084 87.0564 20.084C87.2123 20.084 87.3088 19.9702 87.3088 19.8179C87.3088 19.6622 87.2081 19.5533 87.0606 19.5533Z" fill="#21305A"/>
<path d="M88.7128 18.2545C88.9142 18.2545 89.0531 18.3006 89.1412 18.3509L89.2257 18.0654C89.1244 18.0146 88.9309 17.9601 88.7128 17.9601C88.0478 17.9601 87.6188 18.4141 87.6188 19.0409C87.6188 19.6627 88.0184 20.0793 88.6326 20.0793C88.9064 20.0793 89.1203 20.0121 89.2173 19.9618L89.1544 19.6838C89.049 19.7306 88.9106 19.7851 88.6997 19.7851C88.2958 19.7851 87.9927 19.4949 87.9927 19.0238C87.9927 18.599 88.2455 18.2545 88.7128 18.2545Z" fill="#21305A"/>
<path d="M90.4696 19.8059C90.1083 19.8059 89.8513 19.4694 89.8513 19.0236C89.8513 18.6369 90.04 18.2332 90.478 18.2332C90.9153 18.2332 91.0873 18.6702 91.0873 19.0156C91.0873 19.4736 90.8231 19.8059 90.4696 19.8059ZM90.4858 17.9552C89.9232 17.9552 89.4774 18.3554 89.4774 19.0364C89.4774 19.68 89.9022 20.084 90.4528 20.084C90.9447 20.084 91.466 19.7556 91.466 19.0025C91.466 18.38 91.0711 17.9552 90.4858 17.9552Z" fill="#21305A"/>
<path d="M94.1691 17.9552C93.9762 17.9552 93.8414 18.0062 93.7192 18.0987C93.6347 18.1619 93.5556 18.2501 93.4921 18.3636H93.4831C93.3957 18.1237 93.1848 17.9552 92.9068 17.9552C92.5713 17.9552 92.3819 18.1368 92.2681 18.3297H92.2555L92.2387 18.002H91.9146C91.9278 18.1701 91.932 18.3426 91.932 18.5527V20.037H92.2933V18.8095C92.2933 18.7463 92.3022 18.6831 92.3232 18.6281C92.3819 18.4432 92.5503 18.2583 92.7815 18.2583C93.0625 18.2583 93.2063 18.4937 93.2063 18.8177V20.037H93.5676V18.7797C93.5676 18.7123 93.5808 18.6452 93.597 18.5948C93.6599 18.4139 93.8246 18.2583 94.0343 18.2583C94.3327 18.2583 94.4765 18.4937 94.4765 18.8851V20.037H94.8378V18.8387C94.8378 18.1319 94.4382 17.9552 94.1691 17.9552Z" fill="#21305A"/>
<path d="M95.6014 19.5533C95.4533 19.5533 95.3489 19.6622 95.3489 19.8179C95.3489 19.9702 95.4497 20.084 95.5972 20.084C95.753 20.084 95.8496 19.9702 95.8496 19.8179C95.8496 19.6622 95.7489 19.5533 95.6014 19.5533Z" fill="#21305A"/>
<path d="M97.245 19.7889C96.976 19.7889 96.7609 19.6122 96.6896 19.3559C96.6812 19.3138 96.6734 19.2677 96.6734 19.2213V18.8551C96.6734 18.7965 96.6854 18.7462 96.6944 18.7041C96.7699 18.4221 97.0053 18.2501 97.2576 18.2501C97.6524 18.2501 97.8633 18.5988 97.8633 19.0072C97.8633 19.4736 97.6314 19.7889 97.245 19.7889ZM97.375 17.9552C97.0479 17.9552 96.8118 18.1026 96.6812 18.3296H96.6734V17.0513H96.3067V19.5115C96.3067 19.6924 96.2984 19.8984 96.29 20.0369H96.6099L96.6261 19.7011H96.6393C96.7908 19.9702 97.0263 20.084 97.3205 20.084C97.7746 20.084 98.233 19.7217 98.233 18.9943C98.2378 18.376 97.8795 17.9552 97.375 17.9552Z" fill="#21305A"/>
<path d="M100.086 19.1834C100.086 19.2426 100.082 19.2927 100.07 19.343C100.002 19.6211 99.7749 19.7849 99.5269 19.7849C99.1273 19.7849 98.9254 19.4444 98.9254 19.0318C98.9254 18.5824 99.1524 18.2454 99.5359 18.2454C99.8133 18.2454 100.015 18.4392 100.07 18.6748C100.082 18.7205 100.086 18.7837 100.086 18.8307V19.1834ZM100.457 17.0513H100.086V18.2667H100.078C99.9852 18.1026 99.7749 17.9552 99.464 17.9552C98.9679 17.9552 98.5473 18.3718 98.5509 19.0488C98.5509 19.6672 98.9296 20.084 99.4221 20.084C99.754 20.084 100.002 19.9113 100.116 19.6835H100.124L100.141 20.0369H100.473C100.46 19.8984 100.457 19.6924 100.457 19.5115V17.0513Z" fill="#21305A"/>
</svg>
