<svg width="25" height="25" viewBox="0 0 25 25" fill="none" xmlns="http://www.w3.org/2000/svg">
<path d="M6.76147 2.57629L3.76147 6.57629V20.5763C3.76147 21.1067 3.97219 21.6154 4.34726 21.9905C4.72233 22.3656 5.23104 22.5763 5.76147 22.5763H19.7615C20.2919 22.5763 20.8006 22.3656 21.1757 21.9905C21.5508 21.6154 21.7615 21.1067 21.7615 20.5763V6.57629L18.7615 2.57629H6.76147Z" stroke="black" stroke-width="2" stroke-linecap="round" stroke-linejoin="round"/>
<path d="M3.76147 6.57629H21.7615" stroke="black" stroke-width="2" stroke-linecap="round" stroke-linejoin="round"/>
<path d="M16.7615 10.5763C16.7615 11.6372 16.34 12.6546 15.5899 13.4047C14.8398 14.1549 13.8223 14.5763 12.7615 14.5763C11.7006 14.5763 10.6832 14.1549 9.93305 13.4047C9.1829 12.6546 8.76147 11.6372 8.76147 10.5763" stroke="black" stroke-width="2" stroke-linecap="round" stroke-linejoin="round"/>
</svg>
