<svg width="31" height="37" viewBox="0 0 31 37" fill="none" xmlns="http://www.w3.org/2000/svg">
<rect x="0.857971" y="8.52197" width="29.2846" height="26.8575" rx="3.25" stroke="#1D1D1F" stroke-width="1.5"/>
<mask id="path-2-inside-1_289_1185" fill="white">
<path d="M3.89599 3.07605C4.25351 1.77308 5.43793 0.869873 6.78906 0.869873H24.1723C25.3762 0.869873 26.4635 1.58961 26.9339 2.69788L29.6161 9.01809H2.26556L3.89599 3.07605Z"/>
</mask>
<path d="M29.6161 9.01809V10.5181H31.8822L30.9969 8.43209L29.6161 9.01809ZM2.26556 9.01809L0.81903 8.62118L0.298539 10.5181H2.26556V9.01809ZM6.78906 2.36987H24.1723V-0.630127H6.78906V2.36987ZM25.5531 3.28388L28.2353 9.60409L30.9969 8.43209L28.3147 2.11188L25.5531 3.28388ZM29.6161 7.51809H2.26556V10.5181H29.6161V7.51809ZM3.7121 9.415L5.34253 3.47296L2.44946 2.67914L0.81903 8.62118L3.7121 9.415ZM24.1723 2.36987C24.7743 2.36987 25.3179 2.72974 25.5531 3.28388L28.3147 2.11188C27.6092 0.449478 25.9782 -0.630127 24.1723 -0.630127V2.36987ZM6.78906 -0.630127C4.76236 -0.630127 2.98574 0.72468 2.44946 2.67914L5.34253 3.47296C5.52129 2.82148 6.11349 2.36987 6.78906 2.36987V-0.630127Z" fill="#1D1D1F" mask="url(#path-2-inside-1_289_1185)"/>
<mask id="path-4-inside-2_289_1185" fill="white">
<path d="M22.1637 14.5218C22.5865 14.5218 22.9334 14.8655 22.8899 15.2861C22.8161 15.9995 22.6393 16.6997 22.3638 17.3647C21.9905 18.266 21.4433 19.085 20.7535 19.7748C20.0637 20.4646 19.2447 21.0118 18.3434 21.3851C17.4421 21.7585 16.4761 21.9506 15.5005 21.9506C14.525 21.9506 13.5589 21.7585 12.6576 21.3851C11.7563 21.0118 10.9374 20.4646 10.2476 19.7748C9.55773 19.085 9.01053 18.266 8.6372 17.3647C8.36174 16.6997 8.18492 15.9995 8.11114 15.2861C8.06763 14.8655 8.41452 14.5218 8.83738 14.5218C9.26025 14.5218 9.59794 14.866 9.65269 15.2853C9.71954 15.7974 9.85351 16.2996 10.052 16.7787C10.3483 17.4942 10.7827 18.1443 11.3304 18.692C11.878 19.2396 12.5281 19.674 13.2437 19.9704C13.9592 20.2668 14.7261 20.4193 15.5005 20.4193C16.275 20.4193 17.0419 20.2668 17.7574 19.9704C18.4729 19.674 19.123 19.2396 19.6707 18.692C20.2183 18.1443 20.6527 17.4942 20.9491 16.7787C21.1475 16.2996 21.2815 15.7974 21.3484 15.2853C21.4031 14.866 21.7408 14.5218 22.1637 14.5218Z"/>
</mask>
<path d="M22.1637 14.5218C22.5865 14.5218 22.9334 14.8655 22.8899 15.2861C22.8161 15.9995 22.6393 16.6997 22.3638 17.3647C21.9905 18.266 21.4433 19.085 20.7535 19.7748C20.0637 20.4646 19.2447 21.0118 18.3434 21.3851C17.4421 21.7585 16.4761 21.9506 15.5005 21.9506C14.525 21.9506 13.5589 21.7585 12.6576 21.3851C11.7563 21.0118 10.9374 20.4646 10.2476 19.7748C9.55773 19.085 9.01053 18.266 8.6372 17.3647C8.36174 16.6997 8.18492 15.9995 8.11114 15.2861C8.06763 14.8655 8.41452 14.5218 8.83738 14.5218C9.26025 14.5218 9.59794 14.866 9.65269 15.2853C9.71954 15.7974 9.85351 16.2996 10.052 16.7787C10.3483 17.4942 10.7827 18.1443 11.3304 18.692C11.878 19.2396 12.5281 19.674 13.2437 19.9704C13.9592 20.2668 14.7261 20.4193 15.5005 20.4193C16.275 20.4193 17.0419 20.2668 17.7574 19.9704C18.4729 19.674 19.123 19.2396 19.6707 18.692C20.2183 18.1443 20.6527 17.4942 20.9491 16.7787C21.1475 16.2996 21.2815 15.7974 21.3484 15.2853C21.4031 14.866 21.7408 14.5218 22.1637 14.5218Z" stroke="#1D1D1F" stroke-width="2" mask="url(#path-4-inside-2_289_1185)"/>
</svg>
