<svg width="23" height="22" viewBox="0 0 23 22" fill="none" xmlns="http://www.w3.org/2000/svg">
<path d="M8.0001 6.3875V4.9875C8.0001 2.9883 9.5611 1.3573 11.5001 1.3573C13.4391 1.3573 15.0001 2.9883 15.0001 4.9875V6.3875H17.4193C17.5301 6.38758 17.6368 6.42966 17.7179 6.50525C17.7989 6.58085 17.8483 6.68435 17.8561 6.7949L18.6877 19.0449C18.695 19.1606 18.6563 19.2746 18.58 19.3619C18.5037 19.4492 18.396 19.5028 18.2803 19.5111H4.7493C4.63345 19.5111 4.52235 19.4651 4.44044 19.3832C4.35852 19.3013 4.3125 19.1902 4.3125 19.0743V19.0449L5.1441 6.7949C5.15155 6.6841 5.2008 6.58025 5.28188 6.50436C5.36297 6.42848 5.46984 6.38621 5.5809 6.3861L8.0001 6.3875ZM9.3133 6.3875H13.6883V4.9875C13.6883 3.7009 12.7083 2.6691 11.5001 2.6691C10.2919 2.6691 9.3133 3.7009 9.3133 4.9875V6.3875ZM5.6859 18.2007H17.3143L16.6031 7.7007H6.3985L5.6859 18.2007Z" fill="white"/>
</svg>
