<svg id="Capa_1" enable-background="new 0 0 511 511" height="512" viewBox="0 0 511 511" width="512" xmlns="http://www.w3.org/2000/svg"><g><path d="m453.5 0h-396c-31.706 0-57.5 25.794-57.5 57.5v396c0 31.706 25.794 57.5 57.5 57.5h396c31.706 0 57.5-25.794 57.5-57.5v-396c0-31.706-25.794-57.5-57.5-57.5zm42.5 453.5c0 23.435-19.065 42.5-42.5 42.5h-396c-23.435 0-42.5-19.065-42.5-42.5v-396c0-23.435 19.065-42.5 42.5-42.5h396c23.435 0 42.5 19.065 42.5 42.5z"/><path d="m351.5 148c-22.191 0-42.832 6.76-59.975 18.326-17.758-11.998-38.39-18.326-60.025-18.326-59.275 0-107.5 48.224-107.5 107.5s48.225 107.5 107.5 107.5c21.635 0 42.267-6.328 60.025-18.326 17.143 11.566 37.784 18.326 59.975 18.326 59.275 0 107.5-48.224 107.5-107.5s-48.225-107.5-107.5-107.5zm-120 200c-51.005 0-92.5-41.495-92.5-92.5s41.495-92.5 92.5-92.5c16.977 0 33.231 4.533 47.548 13.155-21.524 19.671-35.048 47.957-35.048 79.345s13.524 59.674 35.048 79.345c-14.317 8.622-30.571 13.155-47.548 13.155zm120 0c-51.005 0-92.5-41.495-92.5-92.5s41.495-92.5 92.5-92.5 92.5 41.495 92.5 92.5-41.495 92.5-92.5 92.5z"/><path d="m224 75.5h15v50h-15z"/><path d="m224 385.5h15v50h-15z"/><path d="m146.5 96.266h15v50h-15z" transform="matrix(.866 -.5 .5 .866 -40.001 93.247)"/><path d="m89.766 153h15v50h-15z" transform="matrix(.5 -.866 .866 .5 -105.52 173.236)"/><path d="m51.5 248h50v15h-50z"/><path d="m72.266 325.5h50v15h-50z" transform="matrix(.866 -.5 .5 .866 -153.47 93.248)"/><path d="m129 382.234h50v15h-50z" transform="matrix(.5 -.866 .866 .5 -260.519 328.233)"/><path d="m453.5 30h-20v15h20c6.893 0 12.5 5.607 12.5 12.5v20h15v-20c0-15.164-12.337-27.5-27.5-27.5z"/><path d="m466 92.5h15v15h-15z"/><path d="m403.5 30h15v15h-15z"/><path d="m45 453.5v-20h-15v20c0 15.164 12.337 27.5 27.5 27.5h20v-15h-20c-6.893 0-12.5-5.607-12.5-12.5z"/><path d="m30 403.5h15v15h-15z"/><path d="m92.5 466h15v15h-15z"/></g></svg>