<svg width="63" height="35" viewBox="0 0 63 35" fill="none" xmlns="http://www.w3.org/2000/svg">
<path d="M50.5707 22.322C47.1255 22.322 44.3228 25.0773 44.3228 28.464C44.3228 31.8508 47.1255 34.6061 50.5707 34.6061C54.0164 34.6061 56.8186 31.8508 56.8186 28.464C56.8186 25.0773 54.0158 22.322 50.5707 22.322ZM50.5707 31.5351C48.8478 31.5351 47.4467 30.1577 47.4467 28.464C47.4467 26.7704 48.8478 25.393 50.5707 25.393C52.2935 25.393 53.6946 26.7704 53.6946 28.464C53.6946 30.1578 52.2935 31.5351 50.5707 31.5351Z" fill="#A9232A"/>
<path d="M29.223 22.322C25.7778 22.322 22.9751 25.0773 22.9751 28.464C22.9751 31.8508 25.7778 34.6061 29.223 34.6061C32.6682 34.6061 35.4709 31.8508 35.4709 28.464C35.4709 25.0773 32.6682 22.322 29.223 22.322ZM29.223 31.5351C27.5002 31.5351 26.0991 30.1577 26.0991 28.464C26.0991 26.7704 27.5002 25.393 29.223 25.393C30.9454 25.393 32.347 26.7704 32.347 28.464C32.347 30.1578 30.9458 31.5351 29.223 31.5351Z" fill="#A9232A"/>
<path d="M54.7776 4.74133C54.512 4.22285 53.9721 3.89575 53.3817 3.89575H45.1553V6.96676H52.4184L56.6717 15.283L59.4635 13.9031L54.7776 4.74133Z" fill="#A9232A"/>
<path d="M45.8849 26.9801H34.0659V30.0511H45.8849V26.9801Z" fill="#A9232A"/>
<path d="M24.5377 26.9801H19.123C18.2602 26.9801 17.561 27.6675 17.561 28.5156C17.561 29.3637 18.2603 30.051 19.123 30.051H24.5378C25.4006 30.051 26.0998 29.3636 26.0998 28.5156C26.0998 27.6674 25.4005 26.9801 24.5377 26.9801Z" fill="#A9232A"/>
<path d="M62.374 17.5928L59.3017 13.7029C59.0065 13.3282 58.5509 13.1091 58.0682 13.1091H46.7179V2.36065C46.7179 1.51251 46.0186 0.825195 45.1559 0.825195H19.123C18.2602 0.825195 17.561 1.5126 17.561 2.36065C17.561 3.2087 18.2603 3.89611 19.123 3.89611H43.5939V14.6446C43.5939 15.4927 44.2932 16.1801 45.1558 16.1801H57.3033L59.5781 19.0606V26.9797H55.2566C54.3938 26.9797 53.6947 27.6672 53.6947 28.5152C53.6947 29.3634 54.3939 30.0507 55.2566 30.0507H61.14C62.0028 30.0507 62.702 29.3633 62.702 28.5152V18.5346C62.702 18.1937 62.5864 17.8621 62.374 17.5928Z" fill="#A9232A"/>
<path d="M30.6855 16.8442C30.4121 14.0947 29.1837 11.5025 27.2265 9.5452C25.5538 7.87262 23.5066 6.79778 21.3524 6.31986V4.80896C22.2322 4.59007 22.8862 3.79365 22.8862 2.84702C22.8862 1.73216 21.9793 0.825195 20.8644 0.825195H16.5829C15.468 0.825195 14.5611 1.73216 14.5611 2.84702C14.5611 3.79359 15.2151 4.59001 16.0949 4.80896V6.32408C13.9473 6.80403 11.9068 7.87738 10.2389 9.54526C9.87388 9.91026 9.5373 10.2932 9.22921 10.6911C9.21429 10.69 9.19936 10.6888 9.18414 10.6888H4.94657C4.61821 10.6888 4.35192 10.9551 4.35192 11.2835C4.35192 11.6119 4.61821 11.8782 4.94657 11.8782H8.42007C7.98407 12.6081 7.63251 13.3747 7.36491 14.1638H0.892994C0.564626 14.1638 0.29834 14.43 0.29834 14.7584C0.29834 15.0868 0.564626 15.3531 0.892994 15.3531H7.02887C6.85749 16.1054 6.75914 16.871 6.73375 17.6387H4.10413C3.77576 17.6387 3.50947 17.905 3.50947 18.2334C3.50947 18.5618 3.77576 18.8281 4.10413 18.8281H6.75272C6.80291 19.5978 6.92665 20.3635 7.12402 21.1137H3.27161C2.94324 21.1137 2.67696 21.38 2.67696 21.7084C2.67696 22.0368 2.94324 22.303 3.27161 22.303H7.50353C8.08688 23.8462 8.99855 25.2926 10.2389 26.5329C12.198 28.4921 14.7929 29.7208 17.5453 29.9927C17.9381 30.0315 18.3312 30.0507 18.7238 30.0507C21.0443 30.0507 23.3352 29.3791 25.2792 28.1132C25.5544 27.934 25.6322 27.5656 25.453 27.2904C25.2738 27.0152 24.9054 26.9374 24.6302 27.1166C20.375 29.8875 14.6762 29.2884 11.0798 25.692C6.86005 21.4722 6.86005 14.6061 11.0798 10.3863C15.2996 6.16656 22.1656 6.16656 26.3855 10.3863C29.9771 13.978 30.5795 19.6719 27.8177 23.925C27.6389 24.2004 27.7172 24.5687 27.9926 24.7475C28.2681 24.9264 28.6363 24.8481 28.8152 24.5727C30.2907 22.3002 30.955 19.5556 30.6855 16.8442ZM15.7504 2.84708C15.7504 2.38801 16.1238 2.01456 16.5829 2.01456H20.8644C21.3235 2.01456 21.6969 2.38801 21.6969 2.84708C21.6969 3.30615 21.3235 3.67959 20.8644 3.67959H20.7577H16.6895H16.5829C16.1238 3.67959 15.7504 3.30609 15.7504 2.84708ZM17.2842 6.11964V4.8689H20.1631V6.1175C19.2071 6.0038 18.2399 6.00451 17.2842 6.11964Z" fill="#FDB94A"/>
<path d="M26.8061 25.517C26.6491 25.517 26.4963 25.5806 26.3857 25.6912C26.2745 25.8018 26.2114 25.9552 26.2114 26.1116C26.2114 26.268 26.2745 26.4214 26.3857 26.532C26.4963 26.6432 26.6491 26.7063 26.8061 26.7063C26.9625 26.7063 27.1153 26.6432 27.2265 26.532C27.3371 26.4214 27.4007 26.268 27.4007 26.1116C27.4007 25.9552 27.3371 25.8018 27.2265 25.6912C27.1153 25.5806 26.9624 25.517 26.8061 25.517Z" fill="#FDB94A"/>
<path d="M18.7331 8.81421C13.6466 8.81421 9.5083 12.9524 9.5083 18.039C9.5083 23.1256 13.6466 27.2638 18.7331 27.2638C23.8197 27.2638 27.9579 23.1256 27.9579 18.039C27.9579 12.9524 23.8197 8.81421 18.7331 8.81421ZM18.7331 26.0745C14.3023 26.0745 10.6976 22.4698 10.6976 18.039C10.6976 13.6083 14.3023 10.0035 18.7331 10.0035C23.1639 10.0035 26.7686 13.6083 26.7686 18.039C26.7686 22.4698 23.1639 26.0745 18.7331 26.0745Z" fill="#FDB94A"/>
<path d="M22.4936 13.4369L19.5483 16.3821C19.302 16.2603 19.025 16.1915 18.7321 16.1915C18.4392 16.1915 18.1622 16.2603 17.9159 16.3821L16.5977 15.0639C16.3654 14.8317 15.989 14.8317 15.7567 15.0639C15.5245 15.2962 15.5245 15.6727 15.7567 15.9049L17.0748 17.2231C16.953 17.4694 16.8843 17.7464 16.8843 18.0393C16.8843 19.0582 17.7131 19.8871 18.7321 19.8871C19.751 19.8871 20.5799 19.0582 20.5799 18.0393C20.5799 17.7464 20.5111 17.4694 20.3893 17.2231L23.2482 14.3642L23.3346 14.2778C23.5668 14.0456 23.5668 13.6691 23.3346 13.4369C23.1024 13.2046 22.726 13.2046 22.4936 13.4369ZM18.7321 18.6979C18.369 18.6979 18.0736 18.4025 18.0736 18.0394C18.0736 17.6763 18.369 17.3808 18.7321 17.3808C19.0952 17.3808 19.3906 17.6763 19.3906 18.0394C19.3906 18.4025 19.0952 18.6979 18.7321 18.6979Z" fill="#FDB94A"/>
<path d="M25.0899 17.4522H24.539C24.2106 17.4522 23.9443 17.7184 23.9443 18.0469C23.9443 18.3753 24.2106 18.6415 24.539 18.6415H25.0899C25.4183 18.6415 25.6846 18.3753 25.6846 18.0469C25.6846 17.7184 25.4183 17.4522 25.0899 17.4522Z" fill="#FDB94A"/>
<path d="M12.9243 17.4377H12.3735C12.0451 17.4377 11.7788 17.7039 11.7788 18.0323C11.7788 18.3608 12.0451 18.627 12.3735 18.627H12.9243C13.2527 18.627 13.519 18.3608 13.519 18.0323C13.519 17.7039 13.2527 17.4377 12.9243 17.4377Z" fill="#FDB94A"/>
<path d="M18.7382 12.8267C19.0666 12.8267 19.3328 12.5605 19.3328 12.2321V11.6812C19.3328 11.3528 19.0666 11.0866 18.7382 11.0866C18.4098 11.0866 18.1436 11.3528 18.1436 11.6812V12.2321C18.1436 12.5605 18.4098 12.8267 18.7382 12.8267Z" fill="#FDB94A"/>
<path d="M18.725 23.2515C18.3967 23.2515 18.1304 23.5177 18.1304 23.8461V24.397C18.1304 24.7254 18.3967 24.9916 18.725 24.9916C19.0534 24.9916 19.3197 24.7254 19.3197 24.397V23.8461C19.3197 23.5177 19.0534 23.2515 18.725 23.2515Z" fill="#FDB94A"/>
<path d="M0.892497 21.1134C0.736105 21.1134 0.582687 21.177 0.472083 21.2876C0.361479 21.3982 0.297852 21.5517 0.297852 21.708C0.297852 21.865 0.361419 22.0179 0.472083 22.1285C0.582746 22.2391 0.736105 22.3027 0.892497 22.3027C1.04889 22.3027 1.20231 22.2391 1.31285 22.1285C1.42345 22.0179 1.48714 21.8644 1.48714 21.708C1.48714 21.5517 1.42351 21.3982 1.31285 21.2876C1.20231 21.177 1.04889 21.1134 0.892497 21.1134Z" fill="#FDB94A"/>
</svg>
