<svg width="35" height="35" viewBox="0 0 35 35" fill="none" xmlns="http://www.w3.org/2000/svg">
<g clip-path="url(#clip0_876_5683)">
<path d="M34.3854 13.2527C34.2572 13.1154 34.0725 13.0446 33.8844 13.0446H31.8202C30.9866 9.60366 29.0375 6.48538 26.2846 4.21109C23.3341 1.77375 19.5963 0.4306 15.7589 0.428589C15.6957 0.428589 15.6319 0.442065 15.5781 0.475119C15.4329 0.564358 15.3808 0.735327 15.4357 0.881489L17.2784 5.78709C17.3275 5.91803 17.4529 6.00473 17.5931 6.00473C21.9506 6.00473 25.7688 8.92327 26.9458 13.0446H25.1734C24.9853 13.0446 24.8006 13.1154 24.6725 13.2527C24.4309 13.5115 24.4321 13.8909 24.6438 14.1443L29.0126 19.3739C29.1403 19.5268 29.3295 19.6152 29.5289 19.6152C29.7284 19.6152 29.9176 19.5268 30.0453 19.3739L34.4141 14.1443C34.6257 13.8909 34.6269 13.5115 34.3854 13.2527Z" fill="#507BE9"/>
<path d="M15.4151 16.1846C19.4983 16.1846 22.8084 12.8826 22.8084 8.80946C22.8084 4.73629 19.4983 1.43433 15.4151 1.43433C11.3318 1.43433 8.02173 4.73629 8.02173 8.80946C8.02173 12.8826 11.3318 16.1846 15.4151 16.1846Z" fill="#FFEE78"/>
<path d="M22.8076 8.80946C22.8076 4.73631 19.4975 1.43433 15.4143 1.43433V16.1846C19.4975 16.1846 22.8076 12.8826 22.8076 8.80946Z" fill="#FCD232"/>
<path d="M15.4145 17.1901C10.7819 17.1901 7.01294 13.4305 7.01294 8.8093C7.01294 4.18811 10.7819 0.428467 15.4145 0.428467C20.0471 0.428467 23.816 4.18811 23.816 8.8093C23.816 13.4305 20.0471 17.1901 15.4145 17.1901ZM15.4145 2.43987C11.8937 2.43987 9.02931 5.29719 9.02931 8.8093C9.02931 12.3214 11.8937 15.1787 15.4145 15.1787C18.9352 15.1787 21.7996 12.3214 21.7996 8.8093C21.7996 5.29719 18.9352 2.43987 15.4145 2.43987Z" fill="#FCD232"/>
<path d="M21.7995 8.80942C21.7995 12.3215 18.9351 15.1789 15.4143 15.1789V17.1903C20.0469 17.1903 23.8158 13.4306 23.8158 8.80942C23.8158 4.18823 20.0469 0.428589 15.4143 0.428589V2.43999C18.9351 2.43999 21.7995 5.29732 21.7995 8.80942Z" fill="#F7B90F"/>
<path d="M18.1038 10.4859C18.1038 9.00716 16.8977 7.80408 15.4153 7.80408C15.0447 7.80408 14.7432 7.50331 14.7432 7.13361C14.7432 6.76392 15.0447 6.46314 15.4153 6.46314C15.7336 6.46314 16.0105 6.68829 16.0737 6.99851C16.1845 7.5428 16.717 7.89446 17.2624 7.78396C17.808 7.6734 18.1606 7.14253 18.0498 6.59818C17.8669 5.70002 17.2382 4.97994 16.4235 4.649V4.45174C16.4235 3.89633 15.9721 3.44604 15.4153 3.44604C14.8585 3.44604 14.4071 3.89633 14.4071 4.45174V4.64812C13.4229 5.04685 12.7268 6.01038 12.7268 7.13361C12.7268 8.61239 13.9329 9.81548 15.4153 9.81548C15.7859 9.81548 16.0874 10.1162 16.0874 10.4859C16.0874 10.8556 15.7859 11.1564 15.4153 11.1564C15.097 11.1564 14.8201 10.9313 14.7569 10.621C14.6461 10.0768 14.114 9.72523 13.5682 9.83559C13.0225 9.94615 12.67 10.477 12.7808 11.0214C12.9637 11.9195 13.5924 12.6397 14.407 12.9706V13.1678C14.407 13.7232 14.8584 14.1735 15.4152 14.1735C15.972 14.1735 16.4234 13.7232 16.4234 13.1678V12.9714C17.4077 12.5727 18.1038 11.6091 18.1038 10.4859Z" fill="#FCD232"/>
<path d="M15.4143 7.80347V9.81487C15.7849 9.81487 16.0864 10.1156 16.0864 10.4853C16.0864 10.855 15.7849 11.1558 15.4143 11.1558V14.1729C15.9711 14.1729 16.4225 13.7226 16.4225 13.1672V12.9708C17.4067 12.5721 18.1028 11.6086 18.1028 10.4853C18.1028 9.00655 16.8967 7.80347 15.4143 7.80347Z" fill="#F7B90F"/>
<path d="M16.0727 6.99851C16.1835 7.5428 16.716 7.89446 17.2614 7.78396C17.8071 7.6734 18.1596 7.14253 18.0488 6.59818C17.8659 5.70002 17.2372 4.97994 16.4225 4.649V4.45174C16.4225 3.89633 15.9711 3.44604 15.4143 3.44604V6.46314C15.7326 6.46314 16.0095 6.68829 16.0727 6.99851Z" fill="#F7B90F"/>
<path d="M34.1452 23.9586C33.4 22.897 31.9331 22.639 30.8689 23.3823L23.6574 28.4194C23.375 28.6167 23.0385 28.7225 22.6937 28.7225H17.3645V33.4158H23.1175C24.152 33.4158 25.1614 33.0983 26.0088 32.5064L33.5674 27.2268C34.6317 26.4835 34.8904 25.0202 34.1452 23.9586Z" fill="#FABE8C"/>
<path d="M23.6574 28.4196C23.375 28.6169 23.0385 28.7227 22.6937 28.7227L17.3645 28.3105V30.7341H22.8087C25.2176 30.7341 27.1775 28.7791 27.1775 26.376C27.1775 26.2405 27.1704 26.1067 27.1582 25.9744L23.6574 28.4196Z" fill="#E6A578"/>
<path d="M34.1448 23.9581C33.3996 22.8965 31.9328 22.6385 30.8685 23.3818L24.8035 27.6181C25.0296 27.2576 25.1607 26.8319 25.1607 26.3754C25.1607 25.0794 24.1075 24.0287 22.8083 24.0287H17.0953L16.4377 23.5367C15.128 22.5569 13.5053 22.0173 11.8682 22.0173C10.4881 22.0173 9.13324 22.3917 7.9499 23.0999C7.9499 23.0999 6.82873 23.771 6.15856 24.1721C5.8549 24.3538 5.66919 24.6812 5.66919 25.0344V32.4096C5.66919 32.965 6.12059 33.4153 6.67737 33.4153H23.1171C24.1516 33.4153 25.161 33.0978 26.0084 32.5058L33.567 27.2263C34.6313 26.4829 34.89 25.0197 34.1448 23.9581Z" fill="#FFD2AA"/>
<path d="M17.3645 33.4158H23.1175C24.152 33.4158 25.1614 33.0983 26.0088 32.5064L33.5674 27.2268C34.6316 26.4835 34.8903 25.0202 34.1451 23.9586C33.3999 22.897 31.9331 22.639 30.8688 23.3823L24.8038 27.6187C25.03 27.2582 25.1611 26.8324 25.1611 26.3759C25.1611 25.0799 24.1079 24.0293 22.8087 24.0293H17.3645V33.4158Z" fill="#FABE8C"/>
<path d="M27.1564 25.9744L24.8021 27.6188C24.7875 27.6421 24.7729 27.6654 24.7576 27.6881C24.3349 28.3123 23.6189 28.7227 22.8069 28.7227H15.7496C15.1929 28.7227 14.7415 29.173 14.7415 29.7284C14.7415 30.2838 15.1929 30.7341 15.7496 30.7341H22.8069C25.2159 30.7341 27.1757 28.7791 27.1757 26.376C27.1757 26.2405 27.1686 26.1067 27.1564 25.9744Z" fill="#FABE8C"/>
<path d="M6.67705 34.7567H1.16565C0.608868 34.7567 0.157471 34.3065 0.157471 33.751V22.3531C0.157471 21.7977 0.608868 21.3474 1.16565 21.3474H6.67705C7.23384 21.3474 7.68524 21.7977 7.68524 22.3531V33.751C7.68524 34.3065 7.23384 34.7567 6.67705 34.7567Z" fill="#6496F7"/>
<path d="M27.1582 25.9744L24.8039 27.6188C24.7893 27.6421 24.7747 27.6654 24.7593 27.6881C24.3366 28.3123 23.6207 28.7227 22.8087 28.7227H17.3645V30.7341H22.8087C25.2176 30.7341 27.1775 28.7791 27.1775 26.376C27.1775 26.2405 27.1704 26.1067 27.1582 25.9744Z" fill="#E6A578"/>
</g>
<defs>
<clipPath id="clip0_876_5683">
<rect width="34.4127" height="34.3279" fill="white" transform="translate(0.157471 0.428467)"/>
</clipPath>
</defs>
</svg>
