<svg width="17" height="18" viewBox="0 0 17 18" fill="none" xmlns="http://www.w3.org/2000/svg">
<path d="M7.29541 16.1327V17.8544L6.90356 17.5181C6.84302 17.4661 5.40247 16.2234 3.94165 14.4415C1.92651 11.9833 0.904785 9.77672 0.904785 7.88323V7.69556C0.904785 3.95152 3.77161 0.905518 7.29541 0.905518C10.8192 0.905518 13.686 3.95152 13.686 7.69556V7.88323C13.686 8.04224 13.6781 8.20372 13.6637 8.36714L12.4139 7.15575C12.158 4.3947 9.96021 2.2304 7.29541 2.2304C4.45923 2.2304 2.15173 4.68211 2.15173 7.69556V7.88323C2.15173 11.0829 6.03186 14.9564 7.29541 16.1327ZM11.1298 15.181H13.0001V13.1938H11.1298V15.181ZM7.29541 4.88017C8.75647 4.88017 9.94519 6.14318 9.94519 7.69556C9.94519 9.24793 8.75647 10.5109 7.29541 10.5109C5.83435 10.5109 4.64563 9.24793 4.64563 7.69556C4.64563 6.14318 5.83435 4.88017 7.29541 4.88017ZM7.29541 6.20505C6.52185 6.20505 5.89258 6.87365 5.89258 7.69556C5.89258 8.51733 6.52185 9.18607 7.29541 9.18607C8.06885 9.18607 8.69824 8.51733 8.69824 7.69556C8.69824 6.87365 8.06885 6.20505 7.29541 6.20505ZM16.0645 14.2808L15.7139 13.941V16.0679C15.7139 17.0583 14.9554 17.864 14.0233 17.864H10.0754C9.14331 17.864 8.38489 17.0583 8.38489 16.0679V13.941L8.0343 14.2808L7.19397 13.3021L12.0493 8.59567L16.9048 13.3021L16.0645 14.2808ZM14.4669 12.7323L12.0493 10.389L9.63184 12.7323V16.0678C9.63184 16.3277 9.83081 16.5391 10.0754 16.5391H14.0233C14.2679 16.5391 14.4669 16.3277 14.4669 16.0678V12.7323Z" fill="#333333"/>
</svg>
