<svg width="25" height="23" viewBox="0 0 25 23" fill="none" xmlns="http://www.w3.org/2000/svg">
<path d="M9.51692 20.4993V17.4326C9.5169 16.6525 10.2427 16.0187 11.142 16.0135H14.4359C15.3395 16.0135 16.0719 16.6488 16.0719 17.4326V17.4326V20.5088C16.0717 21.1711 16.6811 21.7124 17.4444 21.7279H19.6404C21.8295 21.7279 23.6042 20.1886 23.6042 18.2897V18.2897V9.56574C23.5925 8.81873 23.1881 8.11725 22.5062 7.66094L14.9959 2.41321C13.6802 1.49947 11.8098 1.49947 10.4941 2.41321L3.01681 7.67046C2.33228 8.12493 1.92725 8.82757 1.91882 9.57526V18.2897C1.91882 20.1886 3.69345 21.7279 5.88257 21.7279H8.07855C8.86082 21.7279 9.49496 21.1778 9.49496 20.4993V20.4993" stroke="#B80F0A" stroke-width="2" stroke-linecap="round" stroke-linejoin="round"/>
</svg>
