<svg width="25" height="23" viewBox="0 0 25 23" fill="none" xmlns="http://www.w3.org/2000/svg">
<path d="M9.39375 19.9993V16.9326C9.39373 16.1525 10.1195 15.5187 11.0188 15.5135H14.3128C15.2163 15.5135 15.9488 16.1488 15.9488 16.9326V16.9326V20.0088C15.9486 20.6711 16.5579 21.2124 17.3213 21.2279H19.5172C21.7064 21.2279 23.481 19.6886 23.481 17.7897V17.7897V9.06574C23.4693 8.31873 23.0649 7.61725 22.383 7.16094L14.8727 1.91321C13.557 0.999472 11.6867 0.999472 10.371 1.91321L2.89365 7.17046C2.20911 7.62493 1.80408 8.32757 1.79565 9.07526V17.7897C1.79565 19.6886 3.57029 21.2279 5.7594 21.2279H7.95539C8.73765 21.2279 9.37179 20.6778 9.37179 19.9993V19.9993" stroke="#B81E25" stroke-width="2" stroke-linecap="round" stroke-linejoin="round"/>
</svg>
