<svg width="22" height="20" viewBox="0 0 22 20" fill="none" xmlns="http://www.w3.org/2000/svg">
<path d="M18.875 8.33334C18.875 14.1667 11 19.1667 11 19.1667C11 19.1667 3.125 14.1667 3.125 8.33334C3.125 6.34422 3.95469 4.43657 5.43153 3.03004C6.90838 1.62352 8.91142 0.833344 11 0.833344C13.0886 0.833344 15.0916 1.62352 16.5685 3.03004C18.0453 4.43657 18.875 6.34422 18.875 8.33334Z" stroke="#21305A" stroke-width="1.5" stroke-linecap="round" stroke-linejoin="round"/>
<path d="M11 10.8333C12.4497 10.8333 13.625 9.71406 13.625 8.33334C13.625 6.95263 12.4497 5.83334 11 5.83334C9.55025 5.83334 8.375 6.95263 8.375 8.33334C8.375 9.71406 9.55025 10.8333 11 10.8333Z" stroke="#21305A" stroke-width="1.5" stroke-linecap="round" stroke-linejoin="round"/>
</svg>
