<svg width="21" height="21" viewBox="0 0 21 21" fill="none" xmlns="http://www.w3.org/2000/svg">
<path d="M1.65277 9.72793C1.64933 11.0478 1.9577 12.3498 2.55277 13.5279C3.25834 14.9397 4.34302 16.1271 5.68532 16.9572C7.02762 17.7873 8.57453 18.2273 10.1528 18.2279C11.4726 18.2314 12.7747 17.923 13.9528 17.3279L19.6528 19.2279L17.7528 13.5279C18.3478 12.3498 18.6562 11.0478 18.6528 9.72793C18.6522 8.14969 18.2122 6.60278 17.3821 5.26048C16.5519 3.91818 15.3645 2.8335 13.9528 2.12793C12.7747 1.53286 11.4726 1.22449 10.1528 1.22793H9.65277C7.56842 1.34293 5.59973 2.22269 4.12363 3.69879C2.64753 5.17489 1.76776 7.14359 1.65277 9.22793V9.72793Z" stroke="#21305A" stroke-width="1.8" stroke-linecap="round" stroke-linejoin="round"/>
</svg>
