<svg width="37" height="37" viewBox="0 0 37 37" fill="none" xmlns="http://www.w3.org/2000/svg">
<g clip-path="url(#clip0_876_5730)">
<path d="M34.6812 13.6863L35.2263 12.7029C35.3715 12.441 35.2769 12.1111 35.015 11.966C34.797 11.8451 34.5323 11.891 34.3658 12.0605C31.99 5.00706 25.3558 0.183716 17.8089 0.183716C13.1418 0.183716 8.75395 2.00117 5.45383 5.30136C2.15363 8.60156 0.336182 12.9893 0.336182 17.6564C0.336182 21.6288 1.63542 25.3722 4.09331 28.4818C6.47719 31.4978 9.83202 33.6716 13.5399 34.6028C14.3358 34.8027 15.1604 34.9265 16.0608 34.9812C16.072 34.9819 16.0832 34.9822 16.0942 34.9822C16.3786 34.9822 16.6173 34.7607 16.6348 34.4731C16.6529 34.1742 16.4255 33.9173 16.1266 33.8991C15.2939 33.8485 14.5342 33.7348 13.804 33.5513C6.51267 31.7201 1.42032 25.1839 1.42032 17.6564C1.42032 8.61977 8.77224 1.26786 17.8089 1.26786C24.8656 1.26786 31.0715 5.76335 33.3176 12.3449C33.0961 12.3059 32.8647 12.4079 32.7496 12.6156C32.6045 12.8773 32.6991 13.2073 32.9609 13.3524L33.9291 13.8891C33.9579 13.9063 34.1456 14.0141 34.3723 13.9416C34.5703 13.8785 34.6619 13.7215 34.6812 13.6863Z" fill="#D3CDBF"/>
<path d="M27.0292 5.84531L6.06917 26.8054C5.85748 27.0171 5.85748 27.3603 6.06917 27.572C6.17498 27.6778 6.31375 27.7307 6.45245 27.7307C6.59115 27.7307 6.72992 27.6778 6.83573 27.572L27.7958 6.61194C28.0075 6.40017 28.0075 6.05701 27.7958 5.84531C27.5841 5.63376 27.2408 5.63376 27.0292 5.84531Z" fill="#D3CDBF"/>
<path d="M7.27184 9.39655C5.04965 9.39655 4.29458 12.289 5.46632 12.289C5.76554 12.289 6.00839 12.0465 6.00839 11.747C6.00839 11.0503 6.57517 10.4836 7.27177 10.4836C8.43397 10.4836 8.9798 11.9326 8.10157 12.6998L5.10819 15.3154C4.73221 15.6439 4.96537 16.2656 5.46487 16.2656H9.07867C9.37804 16.2656 9.62074 16.0201 9.62074 15.7207C9.62074 15.4213 9.37804 15.1786 9.07867 15.1786H6.91429L8.81667 13.5184C10.4448 12.0974 9.44056 9.39655 7.27184 9.39655Z" fill="#818181"/>
<path d="M15.0772 13.7326H14.1765L14.1737 9.93909C14.1734 9.63986 13.9308 9.39752 13.6316 9.39752C13.3324 9.39752 13.0895 9.64008 13.0895 9.93959V13.7326H11.1451C11.1563 13.7004 12.0418 11.1577 12.0505 11.1248C12.2426 10.3935 11.2458 10.1328 11.0236 10.7732L9.86849 14.0997C9.74634 14.4517 10.0081 14.8196 10.3806 14.8196H13.0894C13.0892 15.7478 13.0428 15.9005 13.2488 16.1063C13.5898 16.4475 14.1764 16.203 14.1764 15.7217V14.8197H15.0771C15.3766 14.8197 15.6192 14.577 15.6192 14.2776C15.6193 13.9672 15.3696 13.7326 15.0772 13.7326Z" fill="#818181"/>
<path d="M23.8836 18.324C23.7849 18.1645 23.6107 18.0674 23.423 18.0674H20.1033C19.8042 18.0674 19.5618 18.3098 19.5618 18.6089C19.5618 18.908 19.8042 19.1504 20.1033 19.1504H22.5475L20.0504 24.153C19.9168 24.4205 20.0254 24.7457 20.293 24.8793C20.3707 24.9181 20.4531 24.9364 20.5344 24.9364C20.7331 24.9364 20.9245 24.8266 21.0193 24.6367L23.9075 18.8508C23.9913 18.6828 23.9823 18.4836 23.8836 18.324Z" fill="#818181"/>
<path d="M32.014 15.5024C31.0805 15.6721 30.4025 16.485 30.4025 17.4337V19.216C30.4025 20.165 31.0812 20.9781 32.0148 21.1478L32.2315 21.1872C31.2438 26.4892 27.1757 30.7213 21.961 31.9488C21.8283 30.9759 20.9974 30.2506 20.0154 30.2506H17.6612C16.6793 30.2506 15.8484 30.9757 15.7158 31.9485C15.33 34.7778 17.5059 36.753 19.8733 36.6175C28.9965 36.0956 36.2958 28.776 36.7743 19.6319C36.9044 17.1439 34.7313 15.0083 32.014 15.5024Z" fill="#6C7A88"/>
<path d="M19.8732 36.617C28.9965 36.0951 36.2958 28.7755 36.7742 19.6314C36.814 18.8715 36.638 18.145 36.2982 17.5157C35.3725 17.7229 34.6609 18.525 34.6089 19.5182C34.1875 27.5716 27.7993 33.9919 19.7494 34.4523C18.7573 34.5091 17.9599 35.2245 17.7561 36.1494C18.3923 36.4904 19.123 36.6599 19.8732 36.617Z" fill="#596775"/>
</g>
<defs>
<clipPath id="clip0_876_5730">
<rect width="36.4442" height="36.4442" fill="white" transform="translate(0.334229 0.181763)"/>
</clipPath>
</defs>
</svg>
