<svg width="25" height="25" viewBox="0 0 25 25" fill="none" xmlns="http://www.w3.org/2000/svg">
<g clip-path="url(#clip0_178_121)">
<path d="M12.1749 15.2279C13.8318 15.2279 15.1749 13.8848 15.1749 12.2279C15.1749 10.5711 13.8318 9.22791 12.1749 9.22791C10.5181 9.22791 9.17493 10.5711 9.17493 12.2279C9.17493 13.8848 10.5181 15.2279 12.1749 15.2279Z" stroke="black" stroke-width="1.5" stroke-linecap="round" stroke-linejoin="round"/>
<path d="M19.5749 15.2279C19.4418 15.5295 19.4021 15.8641 19.4609 16.1885C19.5197 16.5129 19.6744 16.8122 19.9049 17.0479L19.9649 17.1079C20.1509 17.2937 20.2984 17.5142 20.399 17.757C20.4997 17.9998 20.5515 18.2601 20.5515 18.5229C20.5515 18.7857 20.4997 19.046 20.399 19.2888C20.2984 19.5316 20.1509 19.7522 19.9649 19.9379C19.7792 20.1239 19.5586 20.2714 19.3158 20.372C19.073 20.4727 18.8128 20.5245 18.5499 20.5245C18.2871 20.5245 18.0268 20.4727 17.784 20.372C17.5413 20.2714 17.3207 20.1239 17.1349 19.9379L17.0749 19.8779C16.8392 19.6474 16.5399 19.4927 16.2155 19.4339C15.8911 19.3751 15.5565 19.4148 15.2549 19.5479C14.9592 19.6747 14.7069 19.8852 14.5292 20.1534C14.3516 20.4217 14.2562 20.7361 14.2549 21.0579V21.2279C14.2549 21.7583 14.0442 22.267 13.6691 22.6421C13.2941 23.0172 12.7854 23.2279 12.2549 23.2279C11.7245 23.2279 11.2158 23.0172 10.8407 22.6421C10.4656 22.267 10.2549 21.7583 10.2549 21.2279V21.1379C10.2472 20.8069 10.14 20.4859 9.94744 20.2166C9.75483 19.9473 9.48566 19.7422 9.17493 19.6279C8.87331 19.4948 8.53873 19.4551 8.21434 19.5139C7.88994 19.5727 7.59061 19.7274 7.35493 19.9579L7.29493 20.0179C7.10918 20.2039 6.8886 20.3514 6.64581 20.452C6.40301 20.5527 6.14276 20.6045 5.87993 20.6045C5.6171 20.6045 5.35684 20.5527 5.11405 20.452C4.87125 20.3514 4.65067 20.2039 4.46493 20.0179C4.27897 19.8322 4.13146 19.6116 4.03081 19.3688C3.93016 19.126 3.87835 18.8657 3.87835 18.6029C3.87835 18.3401 3.93016 18.0798 4.03081 17.837C4.13146 17.5942 4.27897 17.3737 4.46493 17.1879L4.52493 17.1279C4.75546 16.8922 4.91011 16.5929 4.96893 16.2685C5.02775 15.9441 4.98804 15.6095 4.85493 15.3079C4.72816 15.0121 4.51768 14.7599 4.24939 14.5822C3.9811 14.4045 3.66671 14.3092 3.34493 14.3079H3.17493C2.64449 14.3079 2.13579 14.0972 1.76071 13.7221C1.38564 13.347 1.17493 12.8383 1.17493 12.3079C1.17493 11.7775 1.38564 11.2688 1.76071 10.8937C2.13579 10.5186 2.64449 10.3079 3.17493 10.3079H3.26493C3.59592 10.3002 3.91693 10.193 4.18623 10.0004C4.45552 9.80781 4.66064 9.53864 4.77493 9.22791C4.90804 8.92629 4.94775 8.59171 4.88893 8.26732C4.83011 7.94292 4.67546 7.64358 4.44493 7.40791L4.38493 7.34791C4.19897 7.16216 4.05146 6.94158 3.95081 6.69879C3.85016 6.45599 3.79835 6.19574 3.79835 5.93291C3.79835 5.67007 3.85016 5.40982 3.95081 5.16702C4.05146 4.92423 4.19897 4.70365 4.38493 4.51791C4.57067 4.33195 4.79125 4.18443 5.03405 4.08379C5.27684 3.98314 5.5371 3.93133 5.79993 3.93133C6.06276 3.93133 6.32301 3.98314 6.56581 4.08379C6.8086 4.18443 7.02918 4.33195 7.21493 4.51791L7.27493 4.57791C7.51061 4.80844 7.80994 4.96309 8.13434 5.02191C8.45873 5.08073 8.79331 5.04102 9.09493 4.90791H9.17493C9.4707 4.78114 9.72294 4.57066 9.90062 4.30237C10.0783 4.03408 10.1736 3.71969 10.1749 3.39791V3.22791C10.1749 2.69747 10.3856 2.18876 10.7607 1.81369C11.1358 1.43862 11.6445 1.22791 12.1749 1.22791C12.7054 1.22791 13.2141 1.43862 13.5891 1.81369C13.9642 2.18876 14.1749 2.69747 14.1749 3.22791V3.31791C14.1762 3.63969 14.2716 3.95408 14.4492 4.22237C14.6269 4.49066 14.8792 4.70114 15.1749 4.82791C15.4765 4.96102 15.8111 5.00073 16.1355 4.94191C16.4599 4.88309 16.7592 4.72844 16.9949 4.49791L17.0549 4.43791C17.2407 4.25195 17.4613 4.10443 17.704 4.00379C17.9468 3.90314 18.2071 3.85133 18.4699 3.85133C18.7328 3.85133 18.993 3.90314 19.2358 4.00379C19.4786 4.10443 19.6992 4.25195 19.8849 4.43791C20.0709 4.62365 20.2184 4.84423 20.319 5.08702C20.4197 5.32982 20.4715 5.59007 20.4715 5.85291C20.4715 6.11574 20.4197 6.37599 20.319 6.61879C20.2184 6.86158 20.0709 7.08216 19.8849 7.26791L19.8249 7.32791C19.5944 7.56358 19.4397 7.86292 19.3809 8.18732C19.3221 8.51171 19.3618 8.84629 19.4949 9.14791V9.22791C19.6217 9.52367 19.8322 9.77592 20.1005 9.9536C20.3688 10.1313 20.6831 10.2266 21.0049 10.2279H21.1749C21.7054 10.2279 22.2141 10.4386 22.5891 10.8137C22.9642 11.1888 23.1749 11.6975 23.1749 12.2279C23.1749 12.7583 22.9642 13.267 22.5891 13.6421C22.2141 14.0172 21.7054 14.2279 21.1749 14.2279H21.0849C20.7631 14.2292 20.4488 14.3245 20.1805 14.5022C19.9122 14.6799 19.7017 14.9321 19.5749 15.2279V15.2279Z" stroke="black" stroke-width="1.5" stroke-linecap="round" stroke-linejoin="round"/>
</g>
<defs>
<clipPath id="clip0_178_121">
<rect width="24" height="24" fill="white" transform="translate(0.174927 0.227905)"/>
</clipPath>
</defs>
</svg>
