<svg width="87" height="14" viewBox="0 0 87 14" fill="none" xmlns="http://www.w3.org/2000/svg">
<path d="M6.60303 0.903015L8.50335 4.96015L12.7529 5.61474L9.67798 8.77101L10.4037 13.23L6.60303 11.1236L2.80239 13.23L3.52808 8.77101L0.453125 5.61474L4.70271 4.96015L6.60303 0.903015Z" fill="#FDB94A"/>
<path d="M25.0916 0.903015L26.9919 4.96015L31.2415 5.61474L28.1666 8.77101L28.8923 13.23L25.0916 11.1236L21.291 13.23L22.0167 8.77101L18.9417 5.61474L23.1913 4.96015L25.0916 0.903015Z" fill="#FDB94A"/>
<path d="M43.5817 0.903015L45.482 4.96015L49.7316 5.61474L46.6566 8.77101L47.3823 13.23L43.5817 11.1236L39.781 13.23L40.5067 8.77101L37.4318 5.61474L41.6813 4.96015L43.5817 0.903015Z" fill="#FDB94A"/>
<path d="M80.5603 0.903015L82.4606 4.96015L86.7102 5.61474L83.6353 8.77101L84.3609 13.23L80.5603 11.1236L76.7597 13.23L77.4854 8.77101L74.4104 5.61474L78.66 4.96015L80.5603 0.903015Z" stroke="#FDB94A" stroke-width="0.417308" stroke-linecap="round" stroke-linejoin="round"/>
<path d="M60.248 5.10946L56.1709 5.73141L59.1215 8.74452L58.424 13.0015L62.0721 10.9928V1.23486L60.248 5.10946Z" fill="#FDB94A"/>
<path d="M62.0717 0.903015L63.972 4.96015L68.2216 5.61474L65.1467 8.77101L65.8724 13.23L62.0717 11.1236L58.2711 13.23L58.9968 8.77101L55.9218 5.61474L60.1714 4.96015L62.0717 0.903015Z" stroke="#FDB94A" stroke-width="0.417308" stroke-linecap="round" stroke-linejoin="round"/>
</svg>
