<svg width="20" height="21" viewBox="0 0 20 21" fill="none" xmlns="http://www.w3.org/2000/svg">
<path d="M19.7558 19.0775L14.7817 14.1033C16.1372 12.4455 16.8036 10.3301 16.6432 8.19463C16.4828 6.05919 15.5077 4.06711 13.9197 2.63043C12.3316 1.19376 10.2522 0.422412 8.11137 0.475938C5.97058 0.529465 3.93225 1.40377 2.41801 2.91801C0.903771 4.43225 0.0294646 6.47058 -0.0240619 8.61137C-0.0775884 10.7522 0.69376 12.8316 2.13043 14.4197C3.56711 16.0077 5.55919 16.9828 7.69463 17.1432C9.83008 17.3036 11.9455 16.6372 13.6033 15.2817L18.5775 20.2558C18.7347 20.4076 18.9452 20.4916 19.1637 20.4897C19.3822 20.4878 19.5912 20.4002 19.7457 20.2457C19.9002 20.0912 19.9878 19.8822 19.9897 19.6637C19.9916 19.4452 19.9076 19.2347 19.7558 19.0775ZM8.33333 15.5C7.01479 15.5 5.72586 15.109 4.62953 14.3765C3.5332 13.6439 2.67872 12.6027 2.17414 11.3846C1.66955 10.1664 1.53753 8.82594 1.79477 7.53273C2.052 6.23953 2.68694 5.05164 3.61929 4.11929C4.55164 3.18694 5.73953 2.552 7.03273 2.29477C8.32594 2.03753 9.66638 2.16955 10.8846 2.67414C12.1027 3.17872 13.1439 4.0332 13.8765 5.12953C14.609 6.22586 15 7.51479 15 8.83333C14.998 10.6008 14.295 12.2954 13.0452 13.5452C11.7954 14.795 10.1008 15.498 8.33333 15.5Z" fill="#21305A"/>
</svg>
