<svg width="21" height="18" viewBox="0 0 21 18" fill="none" xmlns="http://www.w3.org/2000/svg">
<path d="M0.367676 16.5447V10.7114C0.369881 8.72294 1.16077 6.81656 2.56681 5.41052C3.97286 4.00447 5.87923 3.21359 7.86768 3.21138H11.8927V1.88972C11.8927 1.56013 11.9905 1.23797 12.1737 0.963951C12.3568 0.689935 12.6171 0.476369 12.9216 0.350252C13.2261 0.224135 13.5611 0.191131 13.8844 0.25541C14.2076 0.319689 14.5046 0.478366 14.7377 0.711382L19.6377 5.61055C20.1064 6.07937 20.3696 6.71514 20.3696 7.37805C20.3696 8.04096 20.1064 8.67673 19.6377 9.14555L14.7377 14.0447C14.5046 14.2777 14.2076 14.4364 13.8844 14.5007C13.5611 14.565 13.2261 14.532 12.9216 14.4058C12.6171 14.2797 12.3568 14.0662 12.1737 13.7921C11.9905 13.5181 11.8927 13.196 11.8927 12.8664V11.5447H7.03434C5.70867 11.546 4.43767 12.0732 3.50027 13.0106C2.56288 13.948 2.03567 15.219 2.03434 16.5447C2.03434 16.7657 1.94654 16.9777 1.79026 17.134C1.63398 17.2903 1.42202 17.378 1.20101 17.378C0.979995 17.378 0.768034 17.2903 0.611753 17.134C0.455473 16.9777 0.367676 16.7657 0.367676 16.5447ZM13.5593 4.04472C13.5593 4.26573 13.4715 4.47769 13.3153 4.63397C13.159 4.79025 12.947 4.87805 12.726 4.87805H7.86768C6.32112 4.87981 4.83841 5.49496 3.74483 6.58854C2.65126 7.68212 2.03611 9.16483 2.03434 10.7114V12.1397C2.65898 11.4288 3.42808 10.8594 4.2903 10.4694C5.15252 10.0794 6.08802 9.87777 7.03434 9.87805H12.726C12.947 9.87805 13.159 9.96585 13.3153 10.1221C13.4715 10.2784 13.5593 10.4904 13.5593 10.7114V12.8664L18.4585 7.96722C18.6147 7.81094 18.7025 7.59902 18.7025 7.37805C18.7025 7.15708 18.6147 6.94516 18.4585 6.78888L13.5593 1.88972V4.04472Z" fill="#494099"/>
</svg>
