<svg width="25" height="25" viewBox="0 0 25 25" fill="none" xmlns="http://www.w3.org/2000/svg">
<g clip-path="url(#clip0_759_4459)">
<path d="M18.5775 14.7884C16.9323 14.7884 15.594 16.1268 15.594 17.7719C15.594 19.417 16.9323 20.7553 18.5775 20.7553C20.2228 20.7553 21.5609 19.417 21.5609 17.7719C21.5609 16.1268 20.2226 14.7884 18.5775 14.7884ZM18.5775 19.2636C17.7548 19.2636 17.0857 18.5945 17.0857 17.7719C17.0857 16.9492 17.7548 16.2801 18.5775 16.2801C19.4001 16.2801 20.0692 16.9492 20.0692 17.7719C20.0692 18.5946 19.4001 19.2636 18.5775 19.2636Z" fill="#828282"/>
<path d="M8.38409 14.7884C6.73898 14.7884 5.40063 16.1268 5.40063 17.7719C5.40063 19.417 6.73898 20.7553 8.38409 20.7553C10.0292 20.7553 11.3676 19.417 11.3676 17.7719C11.3676 16.1268 10.0292 14.7884 8.38409 14.7884ZM8.38409 19.2636C7.56142 19.2636 6.89236 18.5945 6.89236 17.7719C6.89236 16.9492 7.56142 16.2801 8.38409 16.2801C9.20653 16.2801 9.87582 16.9492 9.87582 17.7719C9.87582 18.5946 9.20677 19.2636 8.38409 19.2636Z" fill="#828282"/>
<path d="M20.5867 6.24881C20.4599 5.99696 20.2021 5.83807 19.9202 5.83807H15.9919V7.3298H19.4602L21.4912 11.3694L22.8243 10.6991L20.5867 6.24881Z" fill="#828282"/>
<path d="M16.34 17.0509H10.6963V18.5426H16.34V17.0509Z" fill="#828282"/>
<path d="M6.1464 17.0509H3.56078C3.1488 17.0509 2.81494 17.3848 2.81494 17.7967C2.81494 18.2087 3.14885 18.5426 3.56078 18.5426H6.14645C6.55843 18.5426 6.89229 18.2087 6.89229 17.7967C6.89229 17.3847 6.55839 17.0509 6.1464 17.0509Z" fill="#828282"/>
<path d="M24.2137 12.4911L22.7466 10.6016C22.6057 10.4196 22.3881 10.3132 22.1576 10.3132H16.7377V5.09219C16.7377 4.6802 16.4038 4.34634 15.9918 4.34634H3.56078C3.1488 4.34634 2.81494 4.68025 2.81494 5.09219C2.81494 5.50412 3.14885 5.83803 3.56078 5.83803H15.246V11.0591C15.246 11.471 15.5799 11.8049 15.9918 11.8049H21.7924L22.8786 13.2041V17.0508H20.815C20.403 17.0508 20.0692 17.3847 20.0692 17.7966C20.0692 18.2086 20.4031 18.5425 20.815 18.5425H23.6244C24.0364 18.5425 24.3703 18.2086 24.3703 17.7966V12.9486C24.3703 12.783 24.3151 12.6219 24.2137 12.4911Z" fill="#828282"/>
<path d="M6.09675 13.2719H2.66576C2.25378 13.2719 1.91992 13.6058 1.91992 14.0177C1.91992 14.4297 2.25383 14.7635 2.66576 14.7635H6.09671C6.50869 14.7635 6.84255 14.4296 6.84255 14.0177C6.84255 13.6058 6.50869 13.2719 6.09675 13.2719Z" fill="#828282"/>
<path d="M7.81221 10.3381H1.4475C1.03556 10.3381 0.70166 10.672 0.70166 11.084C0.70166 11.496 1.03556 11.8298 1.4475 11.8298H7.81221C8.22419 11.8298 8.55805 11.4959 8.55805 11.084C8.55805 10.672 8.22419 10.3381 7.81221 10.3381Z" fill="#828282"/>
<path d="M9.03047 7.40437H2.66576C2.25378 7.40437 1.91992 7.73828 1.91992 8.15021C1.91992 8.5622 2.25383 8.89606 2.66576 8.89606H9.03047C9.44245 8.89606 9.77631 8.56215 9.77631 8.15021C9.77631 7.73828 9.44245 7.40437 9.03047 7.40437Z" fill="#828282"/>
</g>
<defs>
<clipPath id="clip0_759_4459">
<rect width="24" height="24" fill="white" transform="translate(0.70166 0.322266)"/>
</clipPath>
</defs>
</svg>
