<svg width="25" height="25" viewBox="0 0 25 25" fill="none" xmlns="http://www.w3.org/2000/svg">
<g clip-path="url(#clip0_178_126)">
<path d="M9.56262 22.2279C10.1149 22.2279 10.5626 21.7802 10.5626 21.2279C10.5626 20.6756 10.1149 20.2279 9.56262 20.2279C9.01034 20.2279 8.56262 20.6756 8.56262 21.2279C8.56262 21.7802 9.01034 22.2279 9.56262 22.2279Z" stroke="#21305A" stroke-width="1.5" stroke-linecap="round" stroke-linejoin="round"/>
<path d="M20.5626 22.2279C21.1149 22.2279 21.5626 21.7802 21.5626 21.2279C21.5626 20.6756 21.1149 20.2279 20.5626 20.2279C20.0103 20.2279 19.5626 20.6756 19.5626 21.2279C19.5626 21.7802 20.0103 22.2279 20.5626 22.2279Z" stroke="#21305A" stroke-width="1.5" stroke-linecap="round" stroke-linejoin="round"/>
<path d="M1.56262 1.22791H5.56262L8.24262 14.6179C8.33407 15.0783 8.58453 15.4919 8.95017 15.7862C9.31581 16.0805 9.77332 16.2369 10.2426 16.2279H19.9626C20.4319 16.2369 20.8894 16.0805 21.2551 15.7862C21.6207 15.4919 21.8712 15.0783 21.9626 14.6179L23.5626 6.22791H6.56262" stroke="#21305A" stroke-width="1.8" stroke-linecap="round" stroke-linejoin="round"/>
</g>
<defs>
<clipPath id="clip0_178_126">
<rect width="24" height="24" fill="white" transform="translate(0.562622 0.227905)"/>
</clipPath>
</defs>
</svg>
