<svg width="29" height="29" viewBox="0 0 29 29" fill="none" xmlns="http://www.w3.org/2000/svg">
<g clip-path="url(#clip0_533_3081)">
<path d="M27.0812 14.8782L28.3096 11.6741C28.4444 11.3207 28.3394 10.92 28.0437 10.6802L25.3803 8.52086L24.8414 5.13135C24.7819 4.75687 24.4879 4.46464 24.1134 4.40514L20.7239 3.86618L18.5663 1.20111C18.3283 0.905384 17.9188 0.800391 17.5741 0.935132L14.3683 2.1653L11.1643 0.936882C10.8091 0.800391 10.4119 0.908884 10.1721 1.20286L8.01277 3.86793L4.62326 4.40689C4.25053 4.46639 3.95655 4.76037 3.89705 5.1331L3.35809 8.52261L0.693024 10.682C0.399044 10.9199 0.292301 11.3207 0.427042 11.6741L1.65546 14.8782L0.427042 18.0822C0.290551 18.4357 0.399044 18.8364 0.693024 19.0744L3.35809 21.232L3.89705 24.6215C3.95655 24.996 4.24878 25.29 4.62326 25.3495L8.01277 25.8884L10.1721 28.5517C10.4119 28.8492 10.8126 28.9542 11.1661 28.8177L14.3683 27.5911L17.5724 28.8195C17.6739 28.858 17.7789 28.8772 17.8856 28.8772C18.1428 28.8772 18.3966 28.7635 18.5663 28.5517L20.7239 25.8884L24.1134 25.3495C24.4879 25.29 24.7819 24.996 24.8414 24.6215L25.3803 21.232L28.0437 19.0744C28.3394 18.8347 28.4444 18.4357 28.3096 18.0822L27.0812 14.8782Z" fill="#B80F0A"/>
<path d="M11.743 13.129C10.2958 13.129 9.11816 11.9513 9.11816 10.5042C9.11816 9.057 10.2958 7.87933 11.743 7.87933C13.1901 7.87933 14.3678 9.057 14.3678 10.5042C14.3678 11.9513 13.1901 13.129 11.743 13.129ZM11.743 9.62921C11.26 9.62921 10.868 10.0212 10.868 10.5042C10.868 10.9871 11.26 11.3791 11.743 11.3791C12.2259 11.3791 12.6179 10.9871 12.6179 10.5042C12.6179 10.0212 12.2259 9.62921 11.743 9.62921Z" fill="white"/>
<path d="M16.9925 21.8776C15.5453 21.8776 14.3677 20.7 14.3677 19.2528C14.3677 17.8057 15.5453 16.628 16.9925 16.628C18.4396 16.628 19.6173 17.8057 19.6173 19.2528C19.6173 20.7 18.4396 21.8776 16.9925 21.8776ZM16.9925 18.3779C16.5113 18.3779 16.1176 18.7716 16.1176 19.2528C16.1176 19.734 16.5113 20.1277 16.9925 20.1277C17.4737 20.1277 17.8674 19.734 17.8674 19.2528C17.8674 18.7716 17.4737 18.3779 16.9925 18.3779Z" fill="white"/>
<path d="M9.9933 21.8777C9.81656 21.8777 9.63983 21.8252 9.48584 21.715C9.09211 21.4332 9.00112 20.8873 9.28285 20.4935L18.0322 8.24438C18.314 7.85066 18.8599 7.75966 19.2537 8.04139C19.6474 8.32138 19.7366 8.86909 19.4567 9.26106L10.7073 21.5102C10.534 21.75 10.2663 21.8777 9.9933 21.8777Z" fill="white"/>
</g>
<defs>
<clipPath id="clip0_533_3081">
<rect width="28" height="28" fill="white" transform="translate(0.367676 0.877197)"/>
</clipPath>
</defs>
</svg>
