<svg width="36" height="23" viewBox="0 0 36 23" fill="none" xmlns="http://www.w3.org/2000/svg">
<path d="M9.18042 13.7241V19.3377H28.9587C29.5237 19.3377 29.9818 18.8807 29.9818 18.317C29.9818 17.8215 29.9818 14.2187 29.9818 13.7241L19.5811 12.3632L9.18042 13.7241Z" fill="#8B9BA9"/>
<path d="M27.9354 13.452V17.2965H9.18042V19.3378H28.9587C29.5237 19.3378 29.9818 18.8808 29.9818 18.3171C29.9818 17.8475 29.9818 14.1849 29.9818 13.7242L27.9354 13.452Z" fill="#6C7A88"/>
<path d="M30.9022 0.27417H12.2497C11.6846 0.27417 11.2265 0.731149 11.2265 1.29482V4.47551H4.40296C3.44582 4.47551 2.6165 5.13743 2.40648 6.06895L1.63208 9.50419C1.43317 10.3866 1.33276 11.2883 1.33276 12.1927V19.3379H11.2265C11.2265 19.1718 11.2265 16.6474 11.2265 13.7243H30.9023C31.4673 13.7243 31.9254 13.2673 31.9254 12.7037V1.29482C31.9254 0.731081 31.4673 0.27417 30.9022 0.27417Z" fill="#FF7E40"/>
<path d="M34.654 9.34109H31.9254V7.50956H33.2897C33.5723 7.50956 33.8013 7.28107 33.8013 6.99924C33.8013 6.7174 33.5723 6.48891 33.2897 6.48891H31.9254V4.65739H33.9718C34.2544 4.65739 34.4834 4.4289 34.4834 4.14706C34.4834 3.86523 34.2544 3.63674 33.9718 3.63674H31.9254V1.80515H34.654C34.9366 1.80515 35.1656 1.57666 35.1656 1.29482C35.1656 1.01299 34.9366 0.784495 34.654 0.784495H31.7874C31.6104 0.479729 31.2808 0.27417 30.9023 0.27417H29.8791V11.6831H11.2265C11.2265 8.09263 11.2265 4.5724 11.2265 4.47544H9.18014V13.7244H7.64539C6.15388 13.7244 4.79708 14.3073 3.78906 15.2554H1.33276V19.338H11.2265C11.2265 19.1995 11.2265 16.6635 11.2265 13.7244H17.5329H30.9023C31.2808 13.7244 31.6104 13.5188 31.7874 13.2141H33.9718C34.2544 13.2141 34.4834 12.9856 34.4834 12.7037C34.4834 12.4219 34.2544 12.1934 33.9718 12.1934H31.9254V10.3618H34.654C34.9366 10.3618 35.1656 10.1333 35.1656 9.85148C35.1656 9.56965 34.9366 9.34109 34.654 9.34109Z" fill="#FF6344"/>
<path d="M1.26525 19.3379H5.00978V17.2966H1.26525C0.982716 17.2966 0.753662 17.5251 0.753662 17.807V18.8276C0.753662 19.1095 0.982716 19.3379 1.26525 19.3379Z" fill="#8B9BA9"/>
<path d="M9.18033 6.51636H4.28111L3.30835 10.8315H9.18033V6.51636Z" fill="#9DC6FB"/>
<path d="M7.25602 8.79017H3.7685L3.30835 10.8315H9.18033V6.51636H7.25602V8.79017Z" fill="#80B4FB"/>
<path d="M25.035 22.9099C27.0127 22.9099 28.6161 21.3106 28.6161 19.3377C28.6161 17.3647 27.0127 15.7654 25.035 15.7654C23.0572 15.7654 21.4539 17.3647 21.4539 19.3377C21.4539 21.3106 23.0572 22.9099 25.035 22.9099Z" fill="#4D5967"/>
<path d="M25.7677 15.8406C25.348 16.6142 25.4654 17.6011 26.1209 18.2549L23.9504 20.42C23.2949 19.7661 22.3056 19.649 21.53 20.0678C21.8689 21.6884 23.3118 22.9097 25.0356 22.9097C27.0103 22.9097 28.6167 21.3073 28.6167 19.3375C28.6166 17.6179 27.3923 16.1786 25.7677 15.8406Z" fill="#35404A"/>
<path d="M25.0355 20.8693C25.8831 20.8693 26.5702 20.1839 26.5702 19.3383C26.5702 18.4928 25.8831 17.8074 25.0355 17.8074C24.1879 17.8074 23.5007 18.4928 23.5007 19.3383C23.5007 20.1839 24.1879 20.8693 25.0355 20.8693Z" fill="#FFF9EB"/>
<path d="M7.64629 22.91C9.62407 22.91 11.2274 21.3106 11.2274 19.3377C11.2274 17.3648 9.62407 15.7654 7.64629 15.7654C5.6685 15.7654 4.06519 17.3648 4.06519 19.3377C4.06519 21.3106 5.6685 22.91 7.64629 22.91Z" fill="#4D5967"/>
<path d="M8.37906 15.8406C7.95928 16.6142 8.07668 17.6011 8.73219 18.255L6.5617 20.4201C5.90626 19.7662 4.91692 19.649 4.14136 20.0678C4.48023 21.6884 5.92317 22.9098 7.64694 22.9098C9.62159 22.9098 11.228 21.3073 11.228 19.3375C11.228 17.618 10.0037 16.1787 8.37906 15.8406Z" fill="#35404A"/>
<path d="M7.64682 20.8694C8.49444 20.8694 9.18158 20.1839 9.18158 19.3384C9.18158 18.4929 8.49444 17.8074 7.64682 17.8074C6.79919 17.8074 6.11206 18.4929 6.11206 19.3384C6.11206 20.1839 6.79919 20.8694 7.64682 20.8694Z" fill="#FFF9EB"/>
<path d="M16.4026 5.97814V6.48847H17.0505C17.3331 6.48847 17.562 6.71682 17.562 6.99873C17.562 7.28063 17.3331 7.50905 17.0505 7.50905H16.4026V8.52957C16.4026 8.81147 16.1736 9.03989 15.8911 9.03989C15.6086 9.03989 15.3796 8.81154 15.3796 8.52957V5.46795C15.3796 5.18612 15.6086 4.95776 15.8911 4.95776H17.4597C17.7423 4.95776 17.9712 5.18612 17.9712 5.46795C17.9712 5.74986 17.7423 5.97828 17.4597 5.97828H16.4026V5.97814Z" fill="#FFF9EB"/>
<path d="M21.2771 8.17037C21.4759 8.37041 21.4746 8.69355 21.274 8.89197C21.1742 8.99056 21.044 9.03989 20.9138 9.03989C20.7821 9.03989 20.6506 8.98954 20.5506 8.88891L19.6862 8.01938H19.4133V8.52957C19.4133 8.81147 19.1843 9.03989 18.9018 9.03989C18.6194 9.03989 18.3904 8.81154 18.3904 8.52957V5.46795C18.3904 5.18612 18.6194 4.95776 18.9018 4.95776H19.8994C20.7408 4.95776 21.4254 5.64453 21.4254 6.48854C21.4254 6.98648 21.187 7.42951 20.8187 7.7093L21.2771 8.17037ZM20.4023 6.48854C20.4023 6.20711 20.1766 5.97821 19.8994 5.97821H19.4133V6.99873H19.8994C20.1766 6.99873 20.4023 6.76983 20.4023 6.48854Z" fill="#FFF9EB"/>
<path d="M24.5972 8.52957C24.5972 8.81147 24.3682 9.03989 24.0857 9.03989H22.5171C22.2346 9.03989 22.0056 8.81154 22.0056 8.52957V5.46795C22.0056 5.18612 22.2346 4.95776 22.5171 4.95776H24.0857C24.3682 4.95776 24.5972 5.18612 24.5972 5.46795C24.5972 5.74986 24.3682 5.97828 24.0857 5.97828H23.0286V6.48861H23.6765C23.9591 6.48861 24.188 6.71696 24.188 6.99886C24.188 7.28077 23.9591 7.50919 23.6765 7.50919H23.0286V8.01945H24.0857C24.3682 8.01938 24.5972 8.24773 24.5972 8.52957Z" fill="#FFF9EB"/>
<path d="M27.771 8.52957C27.771 8.81147 27.5421 9.03989 27.2595 9.03989H25.6909C25.4084 9.03989 25.1794 8.81154 25.1794 8.52957V5.46795C25.1794 5.18612 25.4084 4.95776 25.6909 4.95776H27.2595C27.5421 4.95776 27.771 5.18612 27.771 5.46795C27.771 5.74986 27.5421 5.97828 27.2595 5.97828H26.2024V6.48861H26.8503C27.1329 6.48861 27.3618 6.71696 27.3618 6.99886C27.3618 7.28077 27.1329 7.50919 26.8503 7.50919H26.2024V8.01945H27.2595C27.5421 8.01938 27.771 8.24773 27.771 8.52957Z" fill="#FFF9EB"/>
</svg>
