<svg width="18" height="17" viewBox="0 0 18 17" fill="none" xmlns="http://www.w3.org/2000/svg">
<path d="M16.3117 8.44224V6.10006C16.3117 5.30585 15.6957 4.65996 14.9173 4.59732L12.7422 0.798135C12.5406 0.446763 12.2151 0.195626 11.8257 0.0913435C11.4381 -0.0122287 11.0327 0.0421671 10.6858 0.244092L3.22932 4.58511H1.91974C1.08424 4.58511 0.404785 5.26452 0.404785 6.10006V15.1897C0.404785 16.0252 1.0842 16.7047 1.91974 16.7047H14.7967C15.6323 16.7047 16.3117 16.0252 16.3117 15.1897V12.8475C16.7516 12.6907 17.0692 12.2742 17.0692 11.7811V9.50868C17.0692 9.01557 16.7516 8.59911 16.3117 8.44224ZM14.0372 4.58511H10.7361L13.2119 3.14369L14.0372 4.58511ZM12.8356 2.48636L9.23065 4.58511H7.73537L12.4617 1.83336L12.8356 2.48636ZM11.0671 0.898724C11.2383 0.79849 11.4384 0.77186 11.6296 0.822918C11.8231 0.874686 11.9844 0.999705 12.0846 1.17464L12.0854 1.17603L6.23001 4.58511H4.73479L11.0671 0.898724ZM15.5542 15.1897C15.5542 15.6073 15.2143 15.9472 14.7967 15.9472H1.91974C1.50218 15.9472 1.16228 15.6073 1.16228 15.1897V6.10006C1.16228 5.68251 1.50218 5.3426 1.91974 5.3426H14.7967C15.2143 5.3426 15.5542 5.68251 15.5542 6.10006V8.37247H13.2818C12.0287 8.37247 11.0094 9.39179 11.0094 10.6449C11.0094 11.898 12.0287 12.9173 13.2818 12.9173H15.5542V15.1897ZM16.3117 11.7811C16.3117 11.99 16.1419 12.1598 15.933 12.1598H13.2818C12.4463 12.1598 11.7668 11.4804 11.7668 10.6449C11.7668 9.80938 12.4463 9.12993 13.2818 9.12993H15.933C16.1419 9.12993 16.3117 9.29969 16.3117 9.50868V11.7811Z" fill="#333333"/>
</svg>
